%TF.GenerationSoftware,KiCad,Pcbnew,(5.1.10)-1*%
%TF.CreationDate,2023-11-11T20:16:55+01:00*%
%TF.ProjectId,tmp90x40-qfc2sdip,746d7039-3078-4343-902d-716663327364,rev?*%
%TF.SameCoordinates,Original*%
%TF.FileFunction,Legend,Top*%
%TF.FilePolarity,Positive*%
%FSLAX46Y46*%
G04 Gerber Fmt 4.6, Leading zero omitted, Abs format (unit mm)*
G04 Created by KiCad (PCBNEW (5.1.10)-1) date 2023-11-11 20:16:55*
%MOMM*%
%LPD*%
G01*
G04 APERTURE LIST*
%ADD10C,0.100000*%
%ADD11C,0.250000*%
%ADD12C,0.050000*%
%ADD13C,0.120000*%
%ADD14C,0.010000*%
G04 APERTURE END LIST*
D10*
G36*
X100838000Y-113792000D02*
G01*
X99568000Y-113792000D01*
X100220780Y-113030000D01*
X100838000Y-113792000D01*
G37*
X100838000Y-113792000D02*
X99568000Y-113792000D01*
X100220780Y-113030000D01*
X100838000Y-113792000D01*
D11*
X107720000Y-102147619D02*
X107624761Y-102100000D01*
X107529523Y-102004761D01*
X107386666Y-101861904D01*
X107291428Y-101814285D01*
X107196190Y-101814285D01*
X107243809Y-102052380D02*
X107148571Y-102004761D01*
X107053333Y-101909523D01*
X107005714Y-101719047D01*
X107005714Y-101385714D01*
X107053333Y-101195238D01*
X107148571Y-101100000D01*
X107243809Y-101052380D01*
X107434285Y-101052380D01*
X107529523Y-101100000D01*
X107624761Y-101195238D01*
X107672380Y-101385714D01*
X107672380Y-101719047D01*
X107624761Y-101909523D01*
X107529523Y-102004761D01*
X107434285Y-102052380D01*
X107243809Y-102052380D01*
X108434285Y-101528571D02*
X108100952Y-101528571D01*
X108100952Y-102052380D02*
X108100952Y-101052380D01*
X108577142Y-101052380D01*
X109529523Y-101957142D02*
X109481904Y-102004761D01*
X109339047Y-102052380D01*
X109243809Y-102052380D01*
X109100952Y-102004761D01*
X109005714Y-101909523D01*
X108958095Y-101814285D01*
X108910476Y-101623809D01*
X108910476Y-101480952D01*
X108958095Y-101290476D01*
X109005714Y-101195238D01*
X109100952Y-101100000D01*
X109243809Y-101052380D01*
X109339047Y-101052380D01*
X109481904Y-101100000D01*
X109529523Y-101147619D01*
X110386666Y-101052380D02*
X110196190Y-101052380D01*
X110100952Y-101100000D01*
X110053333Y-101147619D01*
X109958095Y-101290476D01*
X109910476Y-101480952D01*
X109910476Y-101861904D01*
X109958095Y-101957142D01*
X110005714Y-102004761D01*
X110100952Y-102052380D01*
X110291428Y-102052380D01*
X110386666Y-102004761D01*
X110434285Y-101957142D01*
X110481904Y-101861904D01*
X110481904Y-101623809D01*
X110434285Y-101528571D01*
X110386666Y-101480952D01*
X110291428Y-101433333D01*
X110100952Y-101433333D01*
X110005714Y-101480952D01*
X109958095Y-101528571D01*
X109910476Y-101623809D01*
X111339047Y-101385714D02*
X111339047Y-102052380D01*
X111100952Y-101004761D02*
X110862857Y-101719047D01*
X111481904Y-101719047D01*
X149923809Y-102004761D02*
X150066666Y-102052380D01*
X150304761Y-102052380D01*
X150400000Y-102004761D01*
X150447619Y-101957142D01*
X150495238Y-101861904D01*
X150495238Y-101766666D01*
X150447619Y-101671428D01*
X150400000Y-101623809D01*
X150304761Y-101576190D01*
X150114285Y-101528571D01*
X150019047Y-101480952D01*
X149971428Y-101433333D01*
X149923809Y-101338095D01*
X149923809Y-101242857D01*
X149971428Y-101147619D01*
X150019047Y-101100000D01*
X150114285Y-101052380D01*
X150352380Y-101052380D01*
X150495238Y-101100000D01*
X150923809Y-102052380D02*
X150923809Y-101052380D01*
X151161904Y-101052380D01*
X151304761Y-101100000D01*
X151400000Y-101195238D01*
X151447619Y-101290476D01*
X151495238Y-101480952D01*
X151495238Y-101623809D01*
X151447619Y-101814285D01*
X151400000Y-101909523D01*
X151304761Y-102004761D01*
X151161904Y-102052380D01*
X150923809Y-102052380D01*
X151923809Y-102052380D02*
X151923809Y-101052380D01*
X152400000Y-102052380D02*
X152400000Y-101052380D01*
X152780952Y-101052380D01*
X152876190Y-101100000D01*
X152923809Y-101147619D01*
X152971428Y-101242857D01*
X152971428Y-101385714D01*
X152923809Y-101480952D01*
X152876190Y-101528571D01*
X152780952Y-101576190D01*
X152400000Y-101576190D01*
X153828571Y-101052380D02*
X153638095Y-101052380D01*
X153542857Y-101100000D01*
X153495238Y-101147619D01*
X153400000Y-101290476D01*
X153352380Y-101480952D01*
X153352380Y-101861904D01*
X153400000Y-101957142D01*
X153447619Y-102004761D01*
X153542857Y-102052380D01*
X153733333Y-102052380D01*
X153828571Y-102004761D01*
X153876190Y-101957142D01*
X153923809Y-101861904D01*
X153923809Y-101623809D01*
X153876190Y-101528571D01*
X153828571Y-101480952D01*
X153733333Y-101433333D01*
X153542857Y-101433333D01*
X153447619Y-101480952D01*
X153400000Y-101528571D01*
X153352380Y-101623809D01*
X154780952Y-101385714D02*
X154780952Y-102052380D01*
X154542857Y-101004761D02*
X154304761Y-101719047D01*
X154923809Y-101719047D01*
D12*
X123776740Y-112598200D02*
X123776740Y-102870000D01*
X123776740Y-100330000D02*
X123776740Y-90601800D01*
D11*
X166513333Y-99302380D02*
X167084761Y-99302380D01*
X166799047Y-100302380D02*
X166799047Y-99302380D01*
X167418095Y-100302380D02*
X167418095Y-99302380D01*
X167751428Y-100016666D01*
X168084761Y-99302380D01*
X168084761Y-100302380D01*
X168560952Y-100302380D02*
X168560952Y-99302380D01*
X168941904Y-99302380D01*
X169037142Y-99350000D01*
X169084761Y-99397619D01*
X169132380Y-99492857D01*
X169132380Y-99635714D01*
X169084761Y-99730952D01*
X169037142Y-99778571D01*
X168941904Y-99826190D01*
X168560952Y-99826190D01*
X169608571Y-100302380D02*
X169799047Y-100302380D01*
X169894285Y-100254761D01*
X169941904Y-100207142D01*
X170037142Y-100064285D01*
X170084761Y-99873809D01*
X170084761Y-99492857D01*
X170037142Y-99397619D01*
X169989523Y-99350000D01*
X169894285Y-99302380D01*
X169703809Y-99302380D01*
X169608571Y-99350000D01*
X169560952Y-99397619D01*
X169513333Y-99492857D01*
X169513333Y-99730952D01*
X169560952Y-99826190D01*
X169608571Y-99873809D01*
X169703809Y-99921428D01*
X169894285Y-99921428D01*
X169989523Y-99873809D01*
X170037142Y-99826190D01*
X170084761Y-99730952D01*
X170703809Y-99302380D02*
X170799047Y-99302380D01*
X170894285Y-99350000D01*
X170941904Y-99397619D01*
X170989523Y-99492857D01*
X171037142Y-99683333D01*
X171037142Y-99921428D01*
X170989523Y-100111904D01*
X170941904Y-100207142D01*
X170894285Y-100254761D01*
X170799047Y-100302380D01*
X170703809Y-100302380D01*
X170608571Y-100254761D01*
X170560952Y-100207142D01*
X170513333Y-100111904D01*
X170465714Y-99921428D01*
X170465714Y-99683333D01*
X170513333Y-99492857D01*
X170560952Y-99397619D01*
X170608571Y-99350000D01*
X170703809Y-99302380D01*
X171370476Y-100302380D02*
X171894285Y-99635714D01*
X171370476Y-99635714D02*
X171894285Y-100302380D01*
X172703809Y-99635714D02*
X172703809Y-100302380D01*
X172465714Y-99254761D02*
X172227619Y-99969047D01*
X172846666Y-99969047D01*
X173418095Y-99302380D02*
X173513333Y-99302380D01*
X173608571Y-99350000D01*
X173656190Y-99397619D01*
X173703809Y-99492857D01*
X173751428Y-99683333D01*
X173751428Y-99921428D01*
X173703809Y-100111904D01*
X173656190Y-100207142D01*
X173608571Y-100254761D01*
X173513333Y-100302380D01*
X173418095Y-100302380D01*
X173322857Y-100254761D01*
X173275238Y-100207142D01*
X173227619Y-100111904D01*
X173180000Y-99921428D01*
X173180000Y-99683333D01*
X173227619Y-99492857D01*
X173275238Y-99397619D01*
X173322857Y-99350000D01*
X173418095Y-99302380D01*
X164037142Y-102147619D02*
X163941904Y-102100000D01*
X163846666Y-102004761D01*
X163703809Y-101861904D01*
X163608571Y-101814285D01*
X163513333Y-101814285D01*
X163560952Y-102052380D02*
X163465714Y-102004761D01*
X163370476Y-101909523D01*
X163322857Y-101719047D01*
X163322857Y-101385714D01*
X163370476Y-101195238D01*
X163465714Y-101100000D01*
X163560952Y-101052380D01*
X163751428Y-101052380D01*
X163846666Y-101100000D01*
X163941904Y-101195238D01*
X163989523Y-101385714D01*
X163989523Y-101719047D01*
X163941904Y-101909523D01*
X163846666Y-102004761D01*
X163751428Y-102052380D01*
X163560952Y-102052380D01*
X164751428Y-101528571D02*
X164418095Y-101528571D01*
X164418095Y-102052380D02*
X164418095Y-101052380D01*
X164894285Y-101052380D01*
X165846666Y-101957142D02*
X165799047Y-102004761D01*
X165656190Y-102052380D01*
X165560952Y-102052380D01*
X165418095Y-102004761D01*
X165322857Y-101909523D01*
X165275238Y-101814285D01*
X165227619Y-101623809D01*
X165227619Y-101480952D01*
X165275238Y-101290476D01*
X165322857Y-101195238D01*
X165418095Y-101100000D01*
X165560952Y-101052380D01*
X165656190Y-101052380D01*
X165799047Y-101100000D01*
X165846666Y-101147619D01*
X166703809Y-101052380D02*
X166513333Y-101052380D01*
X166418095Y-101100000D01*
X166370476Y-101147619D01*
X166275238Y-101290476D01*
X166227619Y-101480952D01*
X166227619Y-101861904D01*
X166275238Y-101957142D01*
X166322857Y-102004761D01*
X166418095Y-102052380D01*
X166608571Y-102052380D01*
X166703809Y-102004761D01*
X166751428Y-101957142D01*
X166799047Y-101861904D01*
X166799047Y-101623809D01*
X166751428Y-101528571D01*
X166703809Y-101480952D01*
X166608571Y-101433333D01*
X166418095Y-101433333D01*
X166322857Y-101480952D01*
X166275238Y-101528571D01*
X166227619Y-101623809D01*
X167656190Y-101385714D02*
X167656190Y-102052380D01*
X167418095Y-101004761D02*
X167180000Y-101719047D01*
X167799047Y-101719047D01*
X168180000Y-101671428D02*
X168941904Y-101671428D01*
X169275238Y-101385714D02*
X169656190Y-101385714D01*
X169418095Y-101052380D02*
X169418095Y-101909523D01*
X169465714Y-102004761D01*
X169560952Y-102052380D01*
X169656190Y-102052380D01*
X170132380Y-102052380D02*
X170037142Y-102004761D01*
X169989523Y-101957142D01*
X169941904Y-101861904D01*
X169941904Y-101576190D01*
X169989523Y-101480952D01*
X170037142Y-101433333D01*
X170132380Y-101385714D01*
X170275238Y-101385714D01*
X170370476Y-101433333D01*
X170418095Y-101480952D01*
X170465714Y-101576190D01*
X170465714Y-101861904D01*
X170418095Y-101957142D01*
X170370476Y-102004761D01*
X170275238Y-102052380D01*
X170132380Y-102052380D01*
X170894285Y-101671428D02*
X171656190Y-101671428D01*
X172084761Y-102004761D02*
X172227619Y-102052380D01*
X172465714Y-102052380D01*
X172560952Y-102004761D01*
X172608571Y-101957142D01*
X172656190Y-101861904D01*
X172656190Y-101766666D01*
X172608571Y-101671428D01*
X172560952Y-101623809D01*
X172465714Y-101576190D01*
X172275238Y-101528571D01*
X172180000Y-101480952D01*
X172132380Y-101433333D01*
X172084761Y-101338095D01*
X172084761Y-101242857D01*
X172132380Y-101147619D01*
X172180000Y-101100000D01*
X172275238Y-101052380D01*
X172513333Y-101052380D01*
X172656190Y-101100000D01*
X173084761Y-102052380D02*
X173084761Y-101052380D01*
X173322857Y-101052380D01*
X173465714Y-101100000D01*
X173560952Y-101195238D01*
X173608571Y-101290476D01*
X173656190Y-101480952D01*
X173656190Y-101623809D01*
X173608571Y-101814285D01*
X173560952Y-101909523D01*
X173465714Y-102004761D01*
X173322857Y-102052380D01*
X173084761Y-102052380D01*
X174084761Y-102052380D02*
X174084761Y-101052380D01*
X174560952Y-102052380D02*
X174560952Y-101052380D01*
X174941904Y-101052380D01*
X175037142Y-101100000D01*
X175084761Y-101147619D01*
X175132380Y-101242857D01*
X175132380Y-101385714D01*
X175084761Y-101480952D01*
X175037142Y-101528571D01*
X174941904Y-101576190D01*
X174560952Y-101576190D01*
X175989523Y-101052380D02*
X175799047Y-101052380D01*
X175703809Y-101100000D01*
X175656190Y-101147619D01*
X175560952Y-101290476D01*
X175513333Y-101480952D01*
X175513333Y-101861904D01*
X175560952Y-101957142D01*
X175608571Y-102004761D01*
X175703809Y-102052380D01*
X175894285Y-102052380D01*
X175989523Y-102004761D01*
X176037142Y-101957142D01*
X176084761Y-101861904D01*
X176084761Y-101623809D01*
X176037142Y-101528571D01*
X175989523Y-101480952D01*
X175894285Y-101433333D01*
X175703809Y-101433333D01*
X175608571Y-101480952D01*
X175560952Y-101528571D01*
X175513333Y-101623809D01*
X176941904Y-101385714D02*
X176941904Y-102052380D01*
X176703809Y-101004761D02*
X176465714Y-101719047D01*
X177084761Y-101719047D01*
X167180000Y-103516666D02*
X167656190Y-103516666D01*
X167084761Y-103802380D02*
X167418095Y-102802380D01*
X167751428Y-103802380D01*
X168084761Y-103802380D02*
X168084761Y-102802380D01*
X168322857Y-102802380D01*
X168465714Y-102850000D01*
X168560952Y-102945238D01*
X168608571Y-103040476D01*
X168656190Y-103230952D01*
X168656190Y-103373809D01*
X168608571Y-103564285D01*
X168560952Y-103659523D01*
X168465714Y-103754761D01*
X168322857Y-103802380D01*
X168084761Y-103802380D01*
X169037142Y-103516666D02*
X169513333Y-103516666D01*
X168941904Y-103802380D02*
X169275238Y-102802380D01*
X169608571Y-103802380D01*
X169941904Y-103802380D02*
X169941904Y-102802380D01*
X170322857Y-102802380D01*
X170418095Y-102850000D01*
X170465714Y-102897619D01*
X170513333Y-102992857D01*
X170513333Y-103135714D01*
X170465714Y-103230952D01*
X170418095Y-103278571D01*
X170322857Y-103326190D01*
X169941904Y-103326190D01*
X170799047Y-102802380D02*
X171370476Y-102802380D01*
X171084761Y-103802380D02*
X171084761Y-102802380D01*
X171703809Y-103278571D02*
X172037142Y-103278571D01*
X172180000Y-103802380D02*
X171703809Y-103802380D01*
X171703809Y-102802380D01*
X172180000Y-102802380D01*
X173180000Y-103802380D02*
X172846666Y-103326190D01*
X172608571Y-103802380D02*
X172608571Y-102802380D01*
X172989523Y-102802380D01*
X173084761Y-102850000D01*
X173132380Y-102897619D01*
X173180000Y-102992857D01*
X173180000Y-103135714D01*
X173132380Y-103230952D01*
X173084761Y-103278571D01*
X172989523Y-103326190D01*
X172608571Y-103326190D01*
D12*
X123776740Y-100330000D02*
G75*
G02*
X123776740Y-102870000I0J-1270000D01*
G01*
X181018180Y-112598200D02*
X181018180Y-90601800D01*
X123776740Y-112598200D02*
X181018180Y-112598200D01*
X123776740Y-90601800D02*
X181018180Y-90601800D01*
D13*
%TO.C,U1*%
X99660000Y-108710000D02*
X99660000Y-111050000D01*
X99110000Y-108710000D02*
X99660000Y-108710000D01*
X99110000Y-108160000D02*
X99110000Y-108710000D01*
X99110000Y-94490000D02*
X99660000Y-94490000D01*
X99110000Y-95040000D02*
X99110000Y-94490000D01*
X119330000Y-108710000D02*
X118780000Y-108710000D01*
X119330000Y-108160000D02*
X119330000Y-108710000D01*
X119330000Y-94490000D02*
X118780000Y-94490000D01*
X119330000Y-95040000D02*
X119330000Y-94490000D01*
D14*
%TO.C,L1*%
G36*
X131583836Y-102267356D02*
G01*
X131749750Y-102272765D01*
X131912458Y-102280751D01*
X132062638Y-102291000D01*
X132190967Y-102303198D01*
X132288122Y-102317031D01*
X132344783Y-102332187D01*
X132348655Y-102334218D01*
X132411601Y-102386887D01*
X132454215Y-102463106D01*
X132479194Y-102571350D01*
X132489238Y-102720096D01*
X132489738Y-102777396D01*
X132480902Y-102948746D01*
X132453751Y-103074857D01*
X132406423Y-103160782D01*
X132337053Y-103211575D01*
X132328364Y-103215095D01*
X132279417Y-103223898D01*
X132188517Y-103231425D01*
X132066623Y-103237090D01*
X131924695Y-103240309D01*
X131846767Y-103240822D01*
X131702278Y-103242185D01*
X131575537Y-103245681D01*
X131476415Y-103250859D01*
X131414782Y-103257266D01*
X131400290Y-103261243D01*
X131381385Y-103297027D01*
X131366367Y-103367679D01*
X131360602Y-103426202D01*
X131352396Y-103571146D01*
X131190932Y-103578922D01*
X131029468Y-103586697D01*
X131015169Y-103380484D01*
X131009790Y-103279295D01*
X131004687Y-103140755D01*
X131000325Y-102980430D01*
X130997450Y-102828826D01*
X131368752Y-102828826D01*
X131371200Y-102903974D01*
X131376662Y-102939973D01*
X131394790Y-102955209D01*
X131440159Y-102965725D01*
X131519756Y-102972197D01*
X131640572Y-102975301D01*
X131747509Y-102975833D01*
X131892349Y-102975232D01*
X131993198Y-102972636D01*
X132058978Y-102966858D01*
X132098608Y-102956711D01*
X132121010Y-102941008D01*
X132131986Y-102924656D01*
X132155555Y-102841905D01*
X132156644Y-102742283D01*
X132136744Y-102650819D01*
X132113073Y-102607368D01*
X132090988Y-102584151D01*
X132063027Y-102568601D01*
X132019518Y-102559498D01*
X131950784Y-102555622D01*
X131847152Y-102555751D01*
X131722812Y-102558135D01*
X131378854Y-102565729D01*
X131370878Y-102734921D01*
X131368752Y-102828826D01*
X130997450Y-102828826D01*
X130997166Y-102813885D01*
X130996343Y-102748970D01*
X130995365Y-102584706D01*
X130996872Y-102465555D01*
X131001475Y-102383748D01*
X131009784Y-102331514D01*
X131022413Y-102301082D01*
X131032463Y-102289936D01*
X131074570Y-102277758D01*
X131160083Y-102269724D01*
X131279680Y-102265522D01*
X131424039Y-102264837D01*
X131583836Y-102267356D01*
G37*
X131583836Y-102267356D02*
X131749750Y-102272765D01*
X131912458Y-102280751D01*
X132062638Y-102291000D01*
X132190967Y-102303198D01*
X132288122Y-102317031D01*
X132344783Y-102332187D01*
X132348655Y-102334218D01*
X132411601Y-102386887D01*
X132454215Y-102463106D01*
X132479194Y-102571350D01*
X132489238Y-102720096D01*
X132489738Y-102777396D01*
X132480902Y-102948746D01*
X132453751Y-103074857D01*
X132406423Y-103160782D01*
X132337053Y-103211575D01*
X132328364Y-103215095D01*
X132279417Y-103223898D01*
X132188517Y-103231425D01*
X132066623Y-103237090D01*
X131924695Y-103240309D01*
X131846767Y-103240822D01*
X131702278Y-103242185D01*
X131575537Y-103245681D01*
X131476415Y-103250859D01*
X131414782Y-103257266D01*
X131400290Y-103261243D01*
X131381385Y-103297027D01*
X131366367Y-103367679D01*
X131360602Y-103426202D01*
X131352396Y-103571146D01*
X131190932Y-103578922D01*
X131029468Y-103586697D01*
X131015169Y-103380484D01*
X131009790Y-103279295D01*
X131004687Y-103140755D01*
X131000325Y-102980430D01*
X130997450Y-102828826D01*
X131368752Y-102828826D01*
X131371200Y-102903974D01*
X131376662Y-102939973D01*
X131394790Y-102955209D01*
X131440159Y-102965725D01*
X131519756Y-102972197D01*
X131640572Y-102975301D01*
X131747509Y-102975833D01*
X131892349Y-102975232D01*
X131993198Y-102972636D01*
X132058978Y-102966858D01*
X132098608Y-102956711D01*
X132121010Y-102941008D01*
X132131986Y-102924656D01*
X132155555Y-102841905D01*
X132156644Y-102742283D01*
X132136744Y-102650819D01*
X132113073Y-102607368D01*
X132090988Y-102584151D01*
X132063027Y-102568601D01*
X132019518Y-102559498D01*
X131950784Y-102555622D01*
X131847152Y-102555751D01*
X131722812Y-102558135D01*
X131378854Y-102565729D01*
X131370878Y-102734921D01*
X131368752Y-102828826D01*
X130997450Y-102828826D01*
X130997166Y-102813885D01*
X130996343Y-102748970D01*
X130995365Y-102584706D01*
X130996872Y-102465555D01*
X131001475Y-102383748D01*
X131009784Y-102331514D01*
X131022413Y-102301082D01*
X131032463Y-102289936D01*
X131074570Y-102277758D01*
X131160083Y-102269724D01*
X131279680Y-102265522D01*
X131424039Y-102264837D01*
X131583836Y-102267356D01*
G36*
X133015398Y-102289980D02*
G01*
X133065330Y-102299280D01*
X133089509Y-102320486D01*
X133099003Y-102347448D01*
X133102958Y-102390696D01*
X133105820Y-102478238D01*
X133107494Y-102601458D01*
X133107885Y-102751743D01*
X133106897Y-102920478D01*
X133106121Y-102989062D01*
X133098646Y-103571146D01*
X132966190Y-103578919D01*
X132872404Y-103577121D01*
X132810695Y-103560961D01*
X132800825Y-103553784D01*
X132789445Y-103526937D01*
X132780739Y-103468913D01*
X132774473Y-103375102D01*
X132770414Y-103240894D01*
X132768328Y-103061680D01*
X132767917Y-102904396D01*
X132767917Y-102287917D01*
X132926162Y-102287917D01*
X133015398Y-102289980D01*
G37*
X133015398Y-102289980D02*
X133065330Y-102299280D01*
X133089509Y-102320486D01*
X133099003Y-102347448D01*
X133102958Y-102390696D01*
X133105820Y-102478238D01*
X133107494Y-102601458D01*
X133107885Y-102751743D01*
X133106897Y-102920478D01*
X133106121Y-102989062D01*
X133098646Y-103571146D01*
X132966190Y-103578919D01*
X132872404Y-103577121D01*
X132810695Y-103560961D01*
X132800825Y-103553784D01*
X132789445Y-103526937D01*
X132780739Y-103468913D01*
X132774473Y-103375102D01*
X132770414Y-103240894D01*
X132768328Y-103061680D01*
X132767917Y-102904396D01*
X132767917Y-102287917D01*
X132926162Y-102287917D01*
X133015398Y-102289980D01*
G36*
X134044168Y-102292248D02*
G01*
X134210719Y-102296498D01*
X134333087Y-102301993D01*
X134420004Y-102309730D01*
X134480202Y-102320709D01*
X134522413Y-102335927D01*
X134545903Y-102349615D01*
X134608204Y-102415393D01*
X134651163Y-102504259D01*
X134665769Y-102593914D01*
X134659819Y-102631459D01*
X134622743Y-102672185D01*
X134557713Y-102688375D01*
X134483424Y-102680468D01*
X134418573Y-102648904D01*
X134396134Y-102625260D01*
X134372115Y-102597705D01*
X134338848Y-102579520D01*
X134285068Y-102568186D01*
X134199513Y-102561179D01*
X134089480Y-102556607D01*
X133941464Y-102554801D01*
X133842531Y-102561493D01*
X133789493Y-102576928D01*
X133785679Y-102579691D01*
X133752763Y-102634062D01*
X133751491Y-102699448D01*
X133780847Y-102751454D01*
X133793177Y-102759673D01*
X133835879Y-102769729D01*
X133920098Y-102780443D01*
X134034465Y-102790659D01*
X134167612Y-102799222D01*
X134196667Y-102800691D01*
X134553854Y-102817882D01*
X134639844Y-102909698D01*
X134685640Y-102962840D01*
X134711455Y-103011245D01*
X134722954Y-103073127D01*
X134725802Y-103166704D01*
X134725833Y-103186191D01*
X134723636Y-103287713D01*
X134713390Y-103354949D01*
X134689616Y-103406467D01*
X134646831Y-103460835D01*
X134643717Y-103464392D01*
X134561601Y-103557917D01*
X134091660Y-103557917D01*
X133921089Y-103557451D01*
X133795111Y-103555516D01*
X133705405Y-103551305D01*
X133643654Y-103544010D01*
X133601536Y-103532823D01*
X133570732Y-103516938D01*
X133555587Y-103505897D01*
X133484992Y-103425519D01*
X133441291Y-103326313D01*
X133433820Y-103236314D01*
X133445206Y-103199390D01*
X133475196Y-103179244D01*
X133537714Y-103169277D01*
X133581638Y-103166269D01*
X133663991Y-103163857D01*
X133709622Y-103172704D01*
X133734444Y-103198634D01*
X133746668Y-103226643D01*
X133772664Y-103295018D01*
X134083884Y-103287561D01*
X134216250Y-103283942D01*
X134304861Y-103279316D01*
X134358868Y-103271726D01*
X134387424Y-103259213D01*
X134399681Y-103239818D01*
X134403750Y-103219116D01*
X134405790Y-103171269D01*
X134391714Y-103135948D01*
X134354589Y-103110668D01*
X134287483Y-103092945D01*
X134183463Y-103080292D01*
X134035598Y-103070225D01*
X133980167Y-103067261D01*
X133831975Y-103059148D01*
X133726612Y-103051269D01*
X133654040Y-103041581D01*
X133604221Y-103028042D01*
X133567116Y-103008609D01*
X133532686Y-102981239D01*
X133525316Y-102974702D01*
X133484093Y-102934206D01*
X133458760Y-102893502D01*
X133444566Y-102837722D01*
X133436762Y-102752001D01*
X133433502Y-102687385D01*
X133423785Y-102473423D01*
X133613857Y-102283351D01*
X134044168Y-102292248D01*
G37*
X134044168Y-102292248D02*
X134210719Y-102296498D01*
X134333087Y-102301993D01*
X134420004Y-102309730D01*
X134480202Y-102320709D01*
X134522413Y-102335927D01*
X134545903Y-102349615D01*
X134608204Y-102415393D01*
X134651163Y-102504259D01*
X134665769Y-102593914D01*
X134659819Y-102631459D01*
X134622743Y-102672185D01*
X134557713Y-102688375D01*
X134483424Y-102680468D01*
X134418573Y-102648904D01*
X134396134Y-102625260D01*
X134372115Y-102597705D01*
X134338848Y-102579520D01*
X134285068Y-102568186D01*
X134199513Y-102561179D01*
X134089480Y-102556607D01*
X133941464Y-102554801D01*
X133842531Y-102561493D01*
X133789493Y-102576928D01*
X133785679Y-102579691D01*
X133752763Y-102634062D01*
X133751491Y-102699448D01*
X133780847Y-102751454D01*
X133793177Y-102759673D01*
X133835879Y-102769729D01*
X133920098Y-102780443D01*
X134034465Y-102790659D01*
X134167612Y-102799222D01*
X134196667Y-102800691D01*
X134553854Y-102817882D01*
X134639844Y-102909698D01*
X134685640Y-102962840D01*
X134711455Y-103011245D01*
X134722954Y-103073127D01*
X134725802Y-103166704D01*
X134725833Y-103186191D01*
X134723636Y-103287713D01*
X134713390Y-103354949D01*
X134689616Y-103406467D01*
X134646831Y-103460835D01*
X134643717Y-103464392D01*
X134561601Y-103557917D01*
X134091660Y-103557917D01*
X133921089Y-103557451D01*
X133795111Y-103555516D01*
X133705405Y-103551305D01*
X133643654Y-103544010D01*
X133601536Y-103532823D01*
X133570732Y-103516938D01*
X133555587Y-103505897D01*
X133484992Y-103425519D01*
X133441291Y-103326313D01*
X133433820Y-103236314D01*
X133445206Y-103199390D01*
X133475196Y-103179244D01*
X133537714Y-103169277D01*
X133581638Y-103166269D01*
X133663991Y-103163857D01*
X133709622Y-103172704D01*
X133734444Y-103198634D01*
X133746668Y-103226643D01*
X133772664Y-103295018D01*
X134083884Y-103287561D01*
X134216250Y-103283942D01*
X134304861Y-103279316D01*
X134358868Y-103271726D01*
X134387424Y-103259213D01*
X134399681Y-103239818D01*
X134403750Y-103219116D01*
X134405790Y-103171269D01*
X134391714Y-103135948D01*
X134354589Y-103110668D01*
X134287483Y-103092945D01*
X134183463Y-103080292D01*
X134035598Y-103070225D01*
X133980167Y-103067261D01*
X133831975Y-103059148D01*
X133726612Y-103051269D01*
X133654040Y-103041581D01*
X133604221Y-103028042D01*
X133567116Y-103008609D01*
X133532686Y-102981239D01*
X133525316Y-102974702D01*
X133484093Y-102934206D01*
X133458760Y-102893502D01*
X133444566Y-102837722D01*
X133436762Y-102752001D01*
X133433502Y-102687385D01*
X133423785Y-102473423D01*
X133613857Y-102283351D01*
X134044168Y-102292248D01*
G36*
X135879955Y-102315513D02*
G01*
X136027832Y-102320472D01*
X136136955Y-102331569D01*
X136214395Y-102351121D01*
X136267223Y-102381444D01*
X136302511Y-102424856D01*
X136327329Y-102483674D01*
X136340524Y-102528761D01*
X136359612Y-102631798D01*
X136347375Y-102696408D01*
X136300116Y-102729291D01*
X136225561Y-102737303D01*
X136132549Y-102730865D01*
X136077164Y-102707944D01*
X136045032Y-102661847D01*
X136040883Y-102651321D01*
X136008524Y-102608147D01*
X135944511Y-102578373D01*
X135842660Y-102560485D01*
X135696784Y-102552965D01*
X135637854Y-102552500D01*
X135517932Y-102553772D01*
X135434675Y-102563034D01*
X135381392Y-102588449D01*
X135351395Y-102638182D01*
X135337993Y-102720399D01*
X135334498Y-102843265D01*
X135334375Y-102922917D01*
X135335023Y-103069330D01*
X135342368Y-103170998D01*
X135364512Y-103236071D01*
X135409557Y-103272703D01*
X135485605Y-103289045D01*
X135600758Y-103293248D01*
X135702512Y-103293333D01*
X136015872Y-103293333D01*
X136048750Y-103213958D01*
X136072079Y-103167807D01*
X136103430Y-103144185D01*
X136159292Y-103135620D01*
X136223939Y-103134583D01*
X136366250Y-103134583D01*
X136366250Y-103247759D01*
X136341844Y-103379986D01*
X136271924Y-103490461D01*
X136235172Y-103524002D01*
X136196742Y-103537208D01*
X136117372Y-103546874D01*
X135993660Y-103553217D01*
X135822201Y-103556455D01*
X135718021Y-103556976D01*
X135544895Y-103556721D01*
X135416110Y-103554823D01*
X135323100Y-103550506D01*
X135257296Y-103542996D01*
X135210131Y-103531517D01*
X135173036Y-103515295D01*
X135157405Y-103506277D01*
X135107087Y-103466653D01*
X135069926Y-103412755D01*
X135044130Y-103336874D01*
X135027909Y-103231300D01*
X135019470Y-103088324D01*
X135017022Y-102902223D01*
X135020409Y-102714326D01*
X135031782Y-102572181D01*
X135052693Y-102469017D01*
X135084694Y-102398061D01*
X135129337Y-102352543D01*
X135145187Y-102342963D01*
X135192563Y-102332250D01*
X135286962Y-102323770D01*
X135422524Y-102317834D01*
X135593393Y-102314751D01*
X135686255Y-102314375D01*
X135879955Y-102315513D01*
G37*
X135879955Y-102315513D02*
X136027832Y-102320472D01*
X136136955Y-102331569D01*
X136214395Y-102351121D01*
X136267223Y-102381444D01*
X136302511Y-102424856D01*
X136327329Y-102483674D01*
X136340524Y-102528761D01*
X136359612Y-102631798D01*
X136347375Y-102696408D01*
X136300116Y-102729291D01*
X136225561Y-102737303D01*
X136132549Y-102730865D01*
X136077164Y-102707944D01*
X136045032Y-102661847D01*
X136040883Y-102651321D01*
X136008524Y-102608147D01*
X135944511Y-102578373D01*
X135842660Y-102560485D01*
X135696784Y-102552965D01*
X135637854Y-102552500D01*
X135517932Y-102553772D01*
X135434675Y-102563034D01*
X135381392Y-102588449D01*
X135351395Y-102638182D01*
X135337993Y-102720399D01*
X135334498Y-102843265D01*
X135334375Y-102922917D01*
X135335023Y-103069330D01*
X135342368Y-103170998D01*
X135364512Y-103236071D01*
X135409557Y-103272703D01*
X135485605Y-103289045D01*
X135600758Y-103293248D01*
X135702512Y-103293333D01*
X136015872Y-103293333D01*
X136048750Y-103213958D01*
X136072079Y-103167807D01*
X136103430Y-103144185D01*
X136159292Y-103135620D01*
X136223939Y-103134583D01*
X136366250Y-103134583D01*
X136366250Y-103247759D01*
X136341844Y-103379986D01*
X136271924Y-103490461D01*
X136235172Y-103524002D01*
X136196742Y-103537208D01*
X136117372Y-103546874D01*
X135993660Y-103553217D01*
X135822201Y-103556455D01*
X135718021Y-103556976D01*
X135544895Y-103556721D01*
X135416110Y-103554823D01*
X135323100Y-103550506D01*
X135257296Y-103542996D01*
X135210131Y-103531517D01*
X135173036Y-103515295D01*
X135157405Y-103506277D01*
X135107087Y-103466653D01*
X135069926Y-103412755D01*
X135044130Y-103336874D01*
X135027909Y-103231300D01*
X135019470Y-103088324D01*
X135017022Y-102902223D01*
X135020409Y-102714326D01*
X135031782Y-102572181D01*
X135052693Y-102469017D01*
X135084694Y-102398061D01*
X135129337Y-102352543D01*
X135145187Y-102342963D01*
X135192563Y-102332250D01*
X135286962Y-102323770D01*
X135422524Y-102317834D01*
X135593393Y-102314751D01*
X135686255Y-102314375D01*
X135879955Y-102315513D01*
G36*
X136791989Y-102319461D02*
G01*
X136935104Y-102327604D01*
X136955563Y-102512812D01*
X136962337Y-102605973D01*
X136967159Y-102737196D01*
X136969706Y-102891649D01*
X136969657Y-103054503D01*
X136968792Y-103121354D01*
X136961562Y-103544687D01*
X136838282Y-103552654D01*
X136761717Y-103551990D01*
X136709103Y-103541179D01*
X136698062Y-103533211D01*
X136692490Y-103499844D01*
X136686231Y-103421488D01*
X136679704Y-103306059D01*
X136673327Y-103161473D01*
X136667521Y-102995647D01*
X136664998Y-102908560D01*
X136648873Y-102311317D01*
X136791989Y-102319461D01*
G37*
X136791989Y-102319461D02*
X136935104Y-102327604D01*
X136955563Y-102512812D01*
X136962337Y-102605973D01*
X136967159Y-102737196D01*
X136969706Y-102891649D01*
X136969657Y-103054503D01*
X136968792Y-103121354D01*
X136961562Y-103544687D01*
X136838282Y-103552654D01*
X136761717Y-103551990D01*
X136709103Y-103541179D01*
X136698062Y-103533211D01*
X136692490Y-103499844D01*
X136686231Y-103421488D01*
X136679704Y-103306059D01*
X136673327Y-103161473D01*
X136667521Y-102995647D01*
X136664998Y-102908560D01*
X136648873Y-102311317D01*
X136791989Y-102319461D01*
G36*
X137982242Y-102342799D02*
G01*
X138118428Y-102350078D01*
X138217172Y-102364744D01*
X138286160Y-102388871D01*
X138333081Y-102424533D01*
X138365621Y-102473802D01*
X138375526Y-102495823D01*
X138396258Y-102572029D01*
X138399096Y-102635977D01*
X138370194Y-102688079D01*
X138311874Y-102709298D01*
X138238112Y-102699039D01*
X138162881Y-102656705D01*
X138151260Y-102646561D01*
X138110816Y-102613440D01*
X138067806Y-102593307D01*
X138008051Y-102582987D01*
X137917369Y-102579305D01*
X137849345Y-102578958D01*
X137719019Y-102582365D01*
X137632988Y-102594889D01*
X137582936Y-102619987D01*
X137560545Y-102661115D01*
X137556875Y-102700482D01*
X137561437Y-102733911D01*
X137580120Y-102758765D01*
X137620424Y-102777101D01*
X137689845Y-102790977D01*
X137795881Y-102802451D01*
X137946030Y-102813579D01*
X137976270Y-102815571D01*
X138114554Y-102825326D01*
X138210677Y-102834986D01*
X138275335Y-102846994D01*
X138319223Y-102863794D01*
X138353036Y-102887832D01*
X138372264Y-102906071D01*
X138410783Y-102952540D01*
X138433799Y-103007123D01*
X138446579Y-103086659D01*
X138451959Y-103160951D01*
X138455625Y-103262883D01*
X138449838Y-103330520D01*
X138430643Y-103382199D01*
X138394082Y-103436257D01*
X138391962Y-103439043D01*
X138321474Y-103531458D01*
X137434483Y-103531458D01*
X137366697Y-103458698D01*
X137311859Y-103377138D01*
X137281210Y-103285647D01*
X137281438Y-103205653D01*
X137284618Y-103195791D01*
X137320371Y-103172074D01*
X137399126Y-103161413D01*
X137421140Y-103161042D01*
X137501119Y-103165583D01*
X137545486Y-103183689D01*
X137570445Y-103220573D01*
X137585848Y-103247846D01*
X137610283Y-103265218D01*
X137654468Y-103274906D01*
X137729124Y-103279128D01*
X137844970Y-103280100D01*
X137858262Y-103280104D01*
X137982135Y-103278723D01*
X138063570Y-103273474D01*
X138113001Y-103262695D01*
X138140859Y-103244726D01*
X138149168Y-103233802D01*
X138164176Y-103176554D01*
X138149370Y-103141198D01*
X138126404Y-103119652D01*
X138082549Y-103103440D01*
X138008707Y-103090708D01*
X137895780Y-103079604D01*
X137818776Y-103073870D01*
X137655206Y-103061469D01*
X137535791Y-103048821D01*
X137451821Y-103033323D01*
X137394588Y-103012372D01*
X137355382Y-102983363D01*
X137325493Y-102943695D01*
X137313391Y-102922811D01*
X137279832Y-102824693D01*
X137268160Y-102704830D01*
X137277198Y-102581693D01*
X137305767Y-102473751D01*
X137346376Y-102405735D01*
X137371951Y-102380681D01*
X137399909Y-102363076D01*
X137439446Y-102351607D01*
X137499759Y-102344962D01*
X137590043Y-102341826D01*
X137719494Y-102340888D01*
X137800926Y-102340833D01*
X137982242Y-102342799D01*
G37*
X137982242Y-102342799D02*
X138118428Y-102350078D01*
X138217172Y-102364744D01*
X138286160Y-102388871D01*
X138333081Y-102424533D01*
X138365621Y-102473802D01*
X138375526Y-102495823D01*
X138396258Y-102572029D01*
X138399096Y-102635977D01*
X138370194Y-102688079D01*
X138311874Y-102709298D01*
X138238112Y-102699039D01*
X138162881Y-102656705D01*
X138151260Y-102646561D01*
X138110816Y-102613440D01*
X138067806Y-102593307D01*
X138008051Y-102582987D01*
X137917369Y-102579305D01*
X137849345Y-102578958D01*
X137719019Y-102582365D01*
X137632988Y-102594889D01*
X137582936Y-102619987D01*
X137560545Y-102661115D01*
X137556875Y-102700482D01*
X137561437Y-102733911D01*
X137580120Y-102758765D01*
X137620424Y-102777101D01*
X137689845Y-102790977D01*
X137795881Y-102802451D01*
X137946030Y-102813579D01*
X137976270Y-102815571D01*
X138114554Y-102825326D01*
X138210677Y-102834986D01*
X138275335Y-102846994D01*
X138319223Y-102863794D01*
X138353036Y-102887832D01*
X138372264Y-102906071D01*
X138410783Y-102952540D01*
X138433799Y-103007123D01*
X138446579Y-103086659D01*
X138451959Y-103160951D01*
X138455625Y-103262883D01*
X138449838Y-103330520D01*
X138430643Y-103382199D01*
X138394082Y-103436257D01*
X138391962Y-103439043D01*
X138321474Y-103531458D01*
X137434483Y-103531458D01*
X137366697Y-103458698D01*
X137311859Y-103377138D01*
X137281210Y-103285647D01*
X137281438Y-103205653D01*
X137284618Y-103195791D01*
X137320371Y-103172074D01*
X137399126Y-103161413D01*
X137421140Y-103161042D01*
X137501119Y-103165583D01*
X137545486Y-103183689D01*
X137570445Y-103220573D01*
X137585848Y-103247846D01*
X137610283Y-103265218D01*
X137654468Y-103274906D01*
X137729124Y-103279128D01*
X137844970Y-103280100D01*
X137858262Y-103280104D01*
X137982135Y-103278723D01*
X138063570Y-103273474D01*
X138113001Y-103262695D01*
X138140859Y-103244726D01*
X138149168Y-103233802D01*
X138164176Y-103176554D01*
X138149370Y-103141198D01*
X138126404Y-103119652D01*
X138082549Y-103103440D01*
X138008707Y-103090708D01*
X137895780Y-103079604D01*
X137818776Y-103073870D01*
X137655206Y-103061469D01*
X137535791Y-103048821D01*
X137451821Y-103033323D01*
X137394588Y-103012372D01*
X137355382Y-102983363D01*
X137325493Y-102943695D01*
X137313391Y-102922811D01*
X137279832Y-102824693D01*
X137268160Y-102704830D01*
X137277198Y-102581693D01*
X137305767Y-102473751D01*
X137346376Y-102405735D01*
X137371951Y-102380681D01*
X137399909Y-102363076D01*
X137439446Y-102351607D01*
X137499759Y-102344962D01*
X137590043Y-102341826D01*
X137719494Y-102340888D01*
X137800926Y-102340833D01*
X137982242Y-102342799D01*
G36*
X139280780Y-99978685D02*
G01*
X139340850Y-100100619D01*
X139373920Y-100242270D01*
X139374787Y-100378607D01*
X139369807Y-100406935D01*
X139350027Y-100463685D01*
X139312161Y-100485729D01*
X139263499Y-100488750D01*
X139167494Y-100481427D01*
X139113634Y-100455656D01*
X139092708Y-100405734D01*
X139091458Y-100382250D01*
X139080469Y-100284712D01*
X139046850Y-100233515D01*
X139012083Y-100224166D01*
X138962563Y-100246764D01*
X138936894Y-100315285D01*
X138932708Y-100379193D01*
X138956633Y-100478552D01*
X139025246Y-100553485D01*
X139116954Y-100594324D01*
X139209804Y-100637269D01*
X139287872Y-100702837D01*
X139287964Y-100702946D01*
X139320250Y-100745705D01*
X139340354Y-100789659D01*
X139351121Y-100848524D01*
X139355391Y-100936015D01*
X139356042Y-101031453D01*
X139352061Y-101188889D01*
X139338870Y-101301662D01*
X139314599Y-101377517D01*
X139277373Y-101424197D01*
X139258089Y-101436617D01*
X139197666Y-101454972D01*
X139104463Y-101469316D01*
X138996907Y-101478410D01*
X138893430Y-101481017D01*
X138812460Y-101475899D01*
X138782302Y-101468585D01*
X138730388Y-101435226D01*
X138694808Y-101379751D01*
X138670365Y-101290947D01*
X138656343Y-101196784D01*
X138645928Y-101078085D01*
X138652434Y-101001904D01*
X138680487Y-100959290D01*
X138734713Y-100941290D01*
X138789801Y-100938542D01*
X138862054Y-100941377D01*
X138902646Y-100958518D01*
X138925973Y-101002913D01*
X138944232Y-101077448D01*
X138974499Y-101136163D01*
X139019217Y-101151643D01*
X139062021Y-101123669D01*
X139081793Y-101079281D01*
X139080922Y-100986398D01*
X139032036Y-100907613D01*
X138939430Y-100849051D01*
X138913555Y-100839469D01*
X138788806Y-100775562D01*
X138707002Y-100680776D01*
X138667655Y-100554458D01*
X138663928Y-100506564D01*
X138663791Y-100295200D01*
X138678182Y-100132820D01*
X138707554Y-100017397D01*
X138752354Y-99946905D01*
X138793512Y-99923098D01*
X138842568Y-99913928D01*
X138926204Y-99903181D01*
X139025312Y-99893275D01*
X139210521Y-99877229D01*
X139280780Y-99978685D01*
G37*
X139280780Y-99978685D02*
X139340850Y-100100619D01*
X139373920Y-100242270D01*
X139374787Y-100378607D01*
X139369807Y-100406935D01*
X139350027Y-100463685D01*
X139312161Y-100485729D01*
X139263499Y-100488750D01*
X139167494Y-100481427D01*
X139113634Y-100455656D01*
X139092708Y-100405734D01*
X139091458Y-100382250D01*
X139080469Y-100284712D01*
X139046850Y-100233515D01*
X139012083Y-100224166D01*
X138962563Y-100246764D01*
X138936894Y-100315285D01*
X138932708Y-100379193D01*
X138956633Y-100478552D01*
X139025246Y-100553485D01*
X139116954Y-100594324D01*
X139209804Y-100637269D01*
X139287872Y-100702837D01*
X139287964Y-100702946D01*
X139320250Y-100745705D01*
X139340354Y-100789659D01*
X139351121Y-100848524D01*
X139355391Y-100936015D01*
X139356042Y-101031453D01*
X139352061Y-101188889D01*
X139338870Y-101301662D01*
X139314599Y-101377517D01*
X139277373Y-101424197D01*
X139258089Y-101436617D01*
X139197666Y-101454972D01*
X139104463Y-101469316D01*
X138996907Y-101478410D01*
X138893430Y-101481017D01*
X138812460Y-101475899D01*
X138782302Y-101468585D01*
X138730388Y-101435226D01*
X138694808Y-101379751D01*
X138670365Y-101290947D01*
X138656343Y-101196784D01*
X138645928Y-101078085D01*
X138652434Y-101001904D01*
X138680487Y-100959290D01*
X138734713Y-100941290D01*
X138789801Y-100938542D01*
X138862054Y-100941377D01*
X138902646Y-100958518D01*
X138925973Y-101002913D01*
X138944232Y-101077448D01*
X138974499Y-101136163D01*
X139019217Y-101151643D01*
X139062021Y-101123669D01*
X139081793Y-101079281D01*
X139080922Y-100986398D01*
X139032036Y-100907613D01*
X138939430Y-100849051D01*
X138913555Y-100839469D01*
X138788806Y-100775562D01*
X138707002Y-100680776D01*
X138667655Y-100554458D01*
X138663928Y-100506564D01*
X138663791Y-100295200D01*
X138678182Y-100132820D01*
X138707554Y-100017397D01*
X138752354Y-99946905D01*
X138793512Y-99923098D01*
X138842568Y-99913928D01*
X138926204Y-99903181D01*
X139025312Y-99893275D01*
X139210521Y-99877229D01*
X139280780Y-99978685D01*
G36*
X136964327Y-99806013D02*
G01*
X137120312Y-99814062D01*
X137152880Y-100065417D01*
X137182875Y-100295723D01*
X137207548Y-100476209D01*
X137228102Y-100606577D01*
X137245737Y-100686528D01*
X137261655Y-100715765D01*
X137277057Y-100693988D01*
X137293145Y-100620901D01*
X137311120Y-100496205D01*
X137332184Y-100319601D01*
X137357537Y-100090792D01*
X137366096Y-100012500D01*
X137384896Y-99840521D01*
X137503958Y-99833628D01*
X137573728Y-99830454D01*
X137624153Y-99834705D01*
X137656962Y-99853138D01*
X137673887Y-99892512D01*
X137676657Y-99959585D01*
X137667000Y-100061115D01*
X137646648Y-100203861D01*
X137628666Y-100320889D01*
X137601403Y-100500034D01*
X137573012Y-100690829D01*
X137546248Y-100874487D01*
X137523866Y-101032215D01*
X137516728Y-101084062D01*
X137492672Y-101241322D01*
X137469549Y-101350031D01*
X137446298Y-101414517D01*
X137430787Y-101434635D01*
X137389508Y-101459547D01*
X137373224Y-101462705D01*
X137340771Y-101458475D01*
X137272101Y-101452705D01*
X137204949Y-101448115D01*
X137117341Y-101437632D01*
X137057473Y-101420704D01*
X137039894Y-101406816D01*
X137032705Y-101371446D01*
X137019818Y-101292618D01*
X137002600Y-101179316D01*
X136982420Y-101040525D01*
X136962527Y-100898854D01*
X136939179Y-100731555D01*
X136916081Y-100569045D01*
X136895068Y-100424033D01*
X136877977Y-100309224D01*
X136868845Y-100250625D01*
X136850718Y-100132165D01*
X136833561Y-100009203D01*
X136824653Y-99938304D01*
X136808342Y-99797963D01*
X136964327Y-99806013D01*
G37*
X136964327Y-99806013D02*
X137120312Y-99814062D01*
X137152880Y-100065417D01*
X137182875Y-100295723D01*
X137207548Y-100476209D01*
X137228102Y-100606577D01*
X137245737Y-100686528D01*
X137261655Y-100715765D01*
X137277057Y-100693988D01*
X137293145Y-100620901D01*
X137311120Y-100496205D01*
X137332184Y-100319601D01*
X137357537Y-100090792D01*
X137366096Y-100012500D01*
X137384896Y-99840521D01*
X137503958Y-99833628D01*
X137573728Y-99830454D01*
X137624153Y-99834705D01*
X137656962Y-99853138D01*
X137673887Y-99892512D01*
X137676657Y-99959585D01*
X137667000Y-100061115D01*
X137646648Y-100203861D01*
X137628666Y-100320889D01*
X137601403Y-100500034D01*
X137573012Y-100690829D01*
X137546248Y-100874487D01*
X137523866Y-101032215D01*
X137516728Y-101084062D01*
X137492672Y-101241322D01*
X137469549Y-101350031D01*
X137446298Y-101414517D01*
X137430787Y-101434635D01*
X137389508Y-101459547D01*
X137373224Y-101462705D01*
X137340771Y-101458475D01*
X137272101Y-101452705D01*
X137204949Y-101448115D01*
X137117341Y-101437632D01*
X137057473Y-101420704D01*
X137039894Y-101406816D01*
X137032705Y-101371446D01*
X137019818Y-101292618D01*
X137002600Y-101179316D01*
X136982420Y-101040525D01*
X136962527Y-100898854D01*
X136939179Y-100731555D01*
X136916081Y-100569045D01*
X136895068Y-100424033D01*
X136877977Y-100309224D01*
X136868845Y-100250625D01*
X136850718Y-100132165D01*
X136833561Y-100009203D01*
X136824653Y-99938304D01*
X136808342Y-99797963D01*
X136964327Y-99806013D01*
G36*
X138129619Y-99884292D02*
G01*
X138241145Y-99890560D01*
X138314477Y-99900848D01*
X138364337Y-99919299D01*
X138405449Y-99950055D01*
X138422794Y-99966783D01*
X138496146Y-100040129D01*
X138496146Y-101331109D01*
X138432002Y-101399409D01*
X138392174Y-101435796D01*
X138347951Y-101456266D01*
X138283244Y-101465125D01*
X138181962Y-101466680D01*
X138180648Y-101466673D01*
X138072801Y-101461021D01*
X137974526Y-101447269D01*
X137911002Y-101429757D01*
X137868628Y-101406879D01*
X137835502Y-101375321D01*
X137810508Y-101328850D01*
X137792534Y-101261228D01*
X137780465Y-101166220D01*
X137773187Y-101037591D01*
X137769585Y-100869104D01*
X137768705Y-100687187D01*
X138059583Y-100687187D01*
X138060846Y-100863541D01*
X138065533Y-100993331D01*
X138074995Y-101082868D01*
X138090579Y-101138464D01*
X138113636Y-101166431D01*
X138145514Y-101173080D01*
X138162963Y-101170824D01*
X138196516Y-101142464D01*
X138223632Y-101084544D01*
X138223769Y-101084062D01*
X138230732Y-101029168D01*
X138234260Y-100933606D01*
X138234222Y-100809523D01*
X138230487Y-100669064D01*
X138228678Y-100626656D01*
X138220714Y-100474064D01*
X138212477Y-100366207D01*
X138202692Y-100294914D01*
X138190084Y-100252011D01*
X138173375Y-100229328D01*
X138165862Y-100224405D01*
X138129262Y-100211208D01*
X138101952Y-100219949D01*
X138082647Y-100256220D01*
X138070064Y-100325613D01*
X138062918Y-100433720D01*
X138059925Y-100586131D01*
X138059583Y-100687187D01*
X137768705Y-100687187D01*
X137768547Y-100654525D01*
X137768542Y-100632352D01*
X137768542Y-100043018D01*
X137839169Y-99959082D01*
X137875556Y-99918144D01*
X137909162Y-99893820D01*
X137953999Y-99882502D01*
X138024079Y-99880581D01*
X138129619Y-99884292D01*
G37*
X138129619Y-99884292D02*
X138241145Y-99890560D01*
X138314477Y-99900848D01*
X138364337Y-99919299D01*
X138405449Y-99950055D01*
X138422794Y-99966783D01*
X138496146Y-100040129D01*
X138496146Y-101331109D01*
X138432002Y-101399409D01*
X138392174Y-101435796D01*
X138347951Y-101456266D01*
X138283244Y-101465125D01*
X138181962Y-101466680D01*
X138180648Y-101466673D01*
X138072801Y-101461021D01*
X137974526Y-101447269D01*
X137911002Y-101429757D01*
X137868628Y-101406879D01*
X137835502Y-101375321D01*
X137810508Y-101328850D01*
X137792534Y-101261228D01*
X137780465Y-101166220D01*
X137773187Y-101037591D01*
X137769585Y-100869104D01*
X137768705Y-100687187D01*
X138059583Y-100687187D01*
X138060846Y-100863541D01*
X138065533Y-100993331D01*
X138074995Y-101082868D01*
X138090579Y-101138464D01*
X138113636Y-101166431D01*
X138145514Y-101173080D01*
X138162963Y-101170824D01*
X138196516Y-101142464D01*
X138223632Y-101084544D01*
X138223769Y-101084062D01*
X138230732Y-101029168D01*
X138234260Y-100933606D01*
X138234222Y-100809523D01*
X138230487Y-100669064D01*
X138228678Y-100626656D01*
X138220714Y-100474064D01*
X138212477Y-100366207D01*
X138202692Y-100294914D01*
X138190084Y-100252011D01*
X138173375Y-100229328D01*
X138165862Y-100224405D01*
X138129262Y-100211208D01*
X138101952Y-100219949D01*
X138082647Y-100256220D01*
X138070064Y-100325613D01*
X138062918Y-100433720D01*
X138059925Y-100586131D01*
X138059583Y-100687187D01*
X137768705Y-100687187D01*
X137768547Y-100654525D01*
X137768542Y-100632352D01*
X137768542Y-100043018D01*
X137839169Y-99959082D01*
X137875556Y-99918144D01*
X137909162Y-99893820D01*
X137953999Y-99882502D01*
X138024079Y-99880581D01*
X138129619Y-99884292D01*
G36*
X135056562Y-99707524D02*
G01*
X135113972Y-99715517D01*
X135198795Y-99720633D01*
X135241771Y-99721502D01*
X135325426Y-99725958D01*
X135389114Y-99736422D01*
X135407287Y-99743362D01*
X135425326Y-99779524D01*
X135443465Y-99860417D01*
X135460074Y-99977885D01*
X135466626Y-100040613D01*
X135479232Y-100156150D01*
X135498448Y-100309953D01*
X135522397Y-100488055D01*
X135549203Y-100676489D01*
X135576061Y-100855285D01*
X135604161Y-101040399D01*
X135623806Y-101179879D01*
X135635534Y-101280238D01*
X135639885Y-101347989D01*
X135637398Y-101389645D01*
X135628611Y-101411719D01*
X135622555Y-101417120D01*
X135583290Y-101435848D01*
X135572500Y-101437090D01*
X135540264Y-101431345D01*
X135476136Y-101421133D01*
X135453437Y-101417652D01*
X135384283Y-101402454D01*
X135348888Y-101373193D01*
X135328794Y-101312320D01*
X135325182Y-101295729D01*
X135300141Y-101197175D01*
X135271853Y-101140623D01*
X135232312Y-101115373D01*
X135186608Y-101110521D01*
X135126199Y-101122374D01*
X135094953Y-101168198D01*
X135090272Y-101183281D01*
X135066401Y-101268257D01*
X135049435Y-101328802D01*
X135031897Y-101372300D01*
X135000431Y-101395423D01*
X134939448Y-101406203D01*
X134892883Y-101409483D01*
X134805520Y-101407978D01*
X134753498Y-101385730D01*
X134732054Y-101334742D01*
X134736426Y-101247020D01*
X134750174Y-101169875D01*
X134760284Y-101117051D01*
X134770371Y-101057280D01*
X134781253Y-100984205D01*
X134793751Y-100891468D01*
X134808683Y-100772712D01*
X134820755Y-100672393D01*
X135161417Y-100672393D01*
X135163192Y-100723809D01*
X135166014Y-100732730D01*
X135191288Y-100747050D01*
X135214189Y-100719925D01*
X135227254Y-100662580D01*
X135228136Y-100639324D01*
X135221613Y-100559257D01*
X135206475Y-100519775D01*
X135187940Y-100524470D01*
X135171229Y-100576932D01*
X135167950Y-100597920D01*
X135161417Y-100672393D01*
X134820755Y-100672393D01*
X134826870Y-100621582D01*
X134849130Y-100431719D01*
X134876284Y-100196767D01*
X134881758Y-100149168D01*
X134902360Y-99980697D01*
X134921338Y-99858492D01*
X134941258Y-99776069D01*
X134964686Y-99726943D01*
X134994189Y-99704629D01*
X135032333Y-99702643D01*
X135056562Y-99707524D01*
G37*
X135056562Y-99707524D02*
X135113972Y-99715517D01*
X135198795Y-99720633D01*
X135241771Y-99721502D01*
X135325426Y-99725958D01*
X135389114Y-99736422D01*
X135407287Y-99743362D01*
X135425326Y-99779524D01*
X135443465Y-99860417D01*
X135460074Y-99977885D01*
X135466626Y-100040613D01*
X135479232Y-100156150D01*
X135498448Y-100309953D01*
X135522397Y-100488055D01*
X135549203Y-100676489D01*
X135576061Y-100855285D01*
X135604161Y-101040399D01*
X135623806Y-101179879D01*
X135635534Y-101280238D01*
X135639885Y-101347989D01*
X135637398Y-101389645D01*
X135628611Y-101411719D01*
X135622555Y-101417120D01*
X135583290Y-101435848D01*
X135572500Y-101437090D01*
X135540264Y-101431345D01*
X135476136Y-101421133D01*
X135453437Y-101417652D01*
X135384283Y-101402454D01*
X135348888Y-101373193D01*
X135328794Y-101312320D01*
X135325182Y-101295729D01*
X135300141Y-101197175D01*
X135271853Y-101140623D01*
X135232312Y-101115373D01*
X135186608Y-101110521D01*
X135126199Y-101122374D01*
X135094953Y-101168198D01*
X135090272Y-101183281D01*
X135066401Y-101268257D01*
X135049435Y-101328802D01*
X135031897Y-101372300D01*
X135000431Y-101395423D01*
X134939448Y-101406203D01*
X134892883Y-101409483D01*
X134805520Y-101407978D01*
X134753498Y-101385730D01*
X134732054Y-101334742D01*
X134736426Y-101247020D01*
X134750174Y-101169875D01*
X134760284Y-101117051D01*
X134770371Y-101057280D01*
X134781253Y-100984205D01*
X134793751Y-100891468D01*
X134808683Y-100772712D01*
X134820755Y-100672393D01*
X135161417Y-100672393D01*
X135163192Y-100723809D01*
X135166014Y-100732730D01*
X135191288Y-100747050D01*
X135214189Y-100719925D01*
X135227254Y-100662580D01*
X135228136Y-100639324D01*
X135221613Y-100559257D01*
X135206475Y-100519775D01*
X135187940Y-100524470D01*
X135171229Y-100576932D01*
X135167950Y-100597920D01*
X135161417Y-100672393D01*
X134820755Y-100672393D01*
X134826870Y-100621582D01*
X134849130Y-100431719D01*
X134876284Y-100196767D01*
X134881758Y-100149168D01*
X134902360Y-99980697D01*
X134921338Y-99858492D01*
X134941258Y-99776069D01*
X134964686Y-99726943D01*
X134994189Y-99704629D01*
X135032333Y-99702643D01*
X135056562Y-99707524D01*
G36*
X135982405Y-99757275D02*
G01*
X136119204Y-99766187D01*
X136128125Y-99766986D01*
X136353021Y-99787604D01*
X136361169Y-99915337D01*
X136358678Y-100019263D01*
X136331042Y-100082971D01*
X136272330Y-100115548D01*
X136225373Y-100123418D01*
X136141354Y-100131562D01*
X136134241Y-100751223D01*
X136130352Y-100978507D01*
X136124487Y-101159519D01*
X136116741Y-101292535D01*
X136107210Y-101375829D01*
X136097928Y-101406067D01*
X136051546Y-101429390D01*
X135976923Y-101439765D01*
X135896796Y-101437022D01*
X135833902Y-101420991D01*
X135816217Y-101408177D01*
X135806913Y-101370433D01*
X135799011Y-101284149D01*
X135792716Y-101153688D01*
X135788233Y-100983412D01*
X135785766Y-100777685D01*
X135785642Y-100756002D01*
X135784156Y-100579749D01*
X135781737Y-100421093D01*
X135778592Y-100287716D01*
X135774926Y-100187301D01*
X135770944Y-100127530D01*
X135768498Y-100114387D01*
X135735080Y-100099132D01*
X135672123Y-100091955D01*
X135664473Y-100091875D01*
X135585867Y-100075611D01*
X135539650Y-100023879D01*
X135523013Y-99932268D01*
X135524726Y-99872583D01*
X135532812Y-99761146D01*
X135718021Y-99753757D01*
X135838784Y-99752813D01*
X135982405Y-99757275D01*
G37*
X135982405Y-99757275D02*
X136119204Y-99766187D01*
X136128125Y-99766986D01*
X136353021Y-99787604D01*
X136361169Y-99915337D01*
X136358678Y-100019263D01*
X136331042Y-100082971D01*
X136272330Y-100115548D01*
X136225373Y-100123418D01*
X136141354Y-100131562D01*
X136134241Y-100751223D01*
X136130352Y-100978507D01*
X136124487Y-101159519D01*
X136116741Y-101292535D01*
X136107210Y-101375829D01*
X136097928Y-101406067D01*
X136051546Y-101429390D01*
X135976923Y-101439765D01*
X135896796Y-101437022D01*
X135833902Y-101420991D01*
X135816217Y-101408177D01*
X135806913Y-101370433D01*
X135799011Y-101284149D01*
X135792716Y-101153688D01*
X135788233Y-100983412D01*
X135785766Y-100777685D01*
X135785642Y-100756002D01*
X135784156Y-100579749D01*
X135781737Y-100421093D01*
X135778592Y-100287716D01*
X135774926Y-100187301D01*
X135770944Y-100127530D01*
X135768498Y-100114387D01*
X135735080Y-100099132D01*
X135672123Y-100091955D01*
X135664473Y-100091875D01*
X135585867Y-100075611D01*
X135539650Y-100023879D01*
X135523013Y-99932268D01*
X135524726Y-99872583D01*
X135532812Y-99761146D01*
X135718021Y-99753757D01*
X135838784Y-99752813D01*
X135982405Y-99757275D01*
G36*
X136659584Y-99786755D02*
G01*
X136728664Y-99820992D01*
X136756407Y-99878411D01*
X136752311Y-99917225D01*
X136748387Y-99957560D01*
X136744822Y-100043390D01*
X136741761Y-100167297D01*
X136739348Y-100321861D01*
X136737725Y-100499662D01*
X136737037Y-100693281D01*
X136737028Y-100707031D01*
X136736667Y-101441250D01*
X136603544Y-101441250D01*
X136514040Y-101434737D01*
X136465643Y-101416471D01*
X136460099Y-101408177D01*
X136455002Y-101367861D01*
X136449425Y-101283313D01*
X136443608Y-101163213D01*
X136437788Y-101016241D01*
X136432205Y-100851077D01*
X136427097Y-100676401D01*
X136422703Y-100500892D01*
X136419262Y-100333232D01*
X136417012Y-100182099D01*
X136416193Y-100056173D01*
X136417043Y-99964135D01*
X136419167Y-99919896D01*
X136432396Y-99787604D01*
X136554864Y-99779671D01*
X136659584Y-99786755D01*
G37*
X136659584Y-99786755D02*
X136728664Y-99820992D01*
X136756407Y-99878411D01*
X136752311Y-99917225D01*
X136748387Y-99957560D01*
X136744822Y-100043390D01*
X136741761Y-100167297D01*
X136739348Y-100321861D01*
X136737725Y-100499662D01*
X136737037Y-100693281D01*
X136737028Y-100707031D01*
X136736667Y-101441250D01*
X136603544Y-101441250D01*
X136514040Y-101434737D01*
X136465643Y-101416471D01*
X136460099Y-101408177D01*
X136455002Y-101367861D01*
X136449425Y-101283313D01*
X136443608Y-101163213D01*
X136437788Y-101016241D01*
X136432205Y-100851077D01*
X136427097Y-100676401D01*
X136422703Y-100500892D01*
X136419262Y-100333232D01*
X136417012Y-100182099D01*
X136416193Y-100056173D01*
X136417043Y-99964135D01*
X136419167Y-99919896D01*
X136432396Y-99787604D01*
X136554864Y-99779671D01*
X136659584Y-99786755D01*
G36*
X134359850Y-99674658D02*
G01*
X134473728Y-99682749D01*
X134567870Y-99694897D01*
X134630221Y-99710813D01*
X134647722Y-99722598D01*
X134665167Y-99778098D01*
X134671778Y-99857943D01*
X134668081Y-99941407D01*
X134654603Y-100007762D01*
X134639844Y-100032762D01*
X134595483Y-100047481D01*
X134519855Y-100054845D01*
X134474479Y-100054789D01*
X134365037Y-100055580D01*
X134297874Y-100072822D01*
X134263032Y-100114505D01*
X134250555Y-100188620D01*
X134249583Y-100235241D01*
X134253065Y-100314625D01*
X134269963Y-100365205D01*
X134309951Y-100393466D01*
X134382707Y-100405895D01*
X134497905Y-100408978D01*
X134508814Y-100409014D01*
X134648983Y-100409375D01*
X134641106Y-100574739D01*
X134633229Y-100740104D01*
X134441406Y-100747878D01*
X134249583Y-100755651D01*
X134249583Y-100897182D01*
X134252677Y-100979187D01*
X134268682Y-101030266D01*
X134307683Y-101057708D01*
X134379764Y-101068801D01*
X134489872Y-101070833D01*
X134646458Y-101070833D01*
X134646458Y-101226752D01*
X134642474Y-101322384D01*
X134628776Y-101376345D01*
X134604607Y-101398732D01*
X134566355Y-101409961D01*
X134558305Y-101409514D01*
X134531779Y-101406248D01*
X134463022Y-101401331D01*
X134362670Y-101395447D01*
X134249583Y-101389670D01*
X133945312Y-101375104D01*
X133923491Y-100559288D01*
X133918532Y-100355415D01*
X133914912Y-100167687D01*
X133912686Y-100002884D01*
X133911912Y-99867788D01*
X133912644Y-99769177D01*
X133914941Y-99713833D01*
X133916384Y-99705125D01*
X133948102Y-99688615D01*
X134020363Y-99677601D01*
X134121112Y-99671795D01*
X134238293Y-99670910D01*
X134359850Y-99674658D01*
G37*
X134359850Y-99674658D02*
X134473728Y-99682749D01*
X134567870Y-99694897D01*
X134630221Y-99710813D01*
X134647722Y-99722598D01*
X134665167Y-99778098D01*
X134671778Y-99857943D01*
X134668081Y-99941407D01*
X134654603Y-100007762D01*
X134639844Y-100032762D01*
X134595483Y-100047481D01*
X134519855Y-100054845D01*
X134474479Y-100054789D01*
X134365037Y-100055580D01*
X134297874Y-100072822D01*
X134263032Y-100114505D01*
X134250555Y-100188620D01*
X134249583Y-100235241D01*
X134253065Y-100314625D01*
X134269963Y-100365205D01*
X134309951Y-100393466D01*
X134382707Y-100405895D01*
X134497905Y-100408978D01*
X134508814Y-100409014D01*
X134648983Y-100409375D01*
X134641106Y-100574739D01*
X134633229Y-100740104D01*
X134441406Y-100747878D01*
X134249583Y-100755651D01*
X134249583Y-100897182D01*
X134252677Y-100979187D01*
X134268682Y-101030266D01*
X134307683Y-101057708D01*
X134379764Y-101068801D01*
X134489872Y-101070833D01*
X134646458Y-101070833D01*
X134646458Y-101226752D01*
X134642474Y-101322384D01*
X134628776Y-101376345D01*
X134604607Y-101398732D01*
X134566355Y-101409961D01*
X134558305Y-101409514D01*
X134531779Y-101406248D01*
X134463022Y-101401331D01*
X134362670Y-101395447D01*
X134249583Y-101389670D01*
X133945312Y-101375104D01*
X133923491Y-100559288D01*
X133918532Y-100355415D01*
X133914912Y-100167687D01*
X133912686Y-100002884D01*
X133911912Y-99867788D01*
X133912644Y-99769177D01*
X133914941Y-99713833D01*
X133916384Y-99705125D01*
X133948102Y-99688615D01*
X134020363Y-99677601D01*
X134121112Y-99671795D01*
X134238293Y-99670910D01*
X134359850Y-99674658D01*
G36*
X133181256Y-99637959D02*
G01*
X133291208Y-99642080D01*
X133428354Y-99649431D01*
X133523415Y-99657227D01*
X133587187Y-99667858D01*
X133630465Y-99683714D01*
X133664044Y-99707186D01*
X133688083Y-99729948D01*
X133719934Y-99764824D01*
X133741155Y-99801253D01*
X133754369Y-99850961D01*
X133762203Y-99925674D01*
X133767283Y-100037119D01*
X133769035Y-100091488D01*
X133771931Y-100224548D01*
X133769782Y-100318630D01*
X133760869Y-100387569D01*
X133743475Y-100445201D01*
X133718253Y-100500638D01*
X133684057Y-100572511D01*
X133673039Y-100615144D01*
X133684087Y-100646309D01*
X133707395Y-100674187D01*
X133732819Y-100713816D01*
X133748730Y-100772484D01*
X133757416Y-100862438D01*
X133760587Y-100959034D01*
X133761206Y-101078671D01*
X133758989Y-101190744D01*
X133754402Y-101275223D01*
X133752861Y-101290344D01*
X133740798Y-101390793D01*
X133591701Y-101382948D01*
X133442604Y-101375104D01*
X133429375Y-101105106D01*
X133418855Y-100958816D01*
X133402802Y-100859908D01*
X133379227Y-100802963D01*
X133346139Y-100782566D01*
X133312998Y-100788329D01*
X133294026Y-100806142D01*
X133280849Y-100848172D01*
X133272097Y-100923013D01*
X133266397Y-101039256D01*
X133264917Y-101089498D01*
X133257396Y-101375104D01*
X133151562Y-101378715D01*
X133067646Y-101378175D01*
X132997718Y-101372188D01*
X132989001Y-101370627D01*
X132937277Y-101335596D01*
X132919911Y-101294267D01*
X132916584Y-101251910D01*
X132913245Y-101163923D01*
X132910046Y-101037593D01*
X132907138Y-100880206D01*
X132904672Y-100699048D01*
X132902800Y-100501408D01*
X132902463Y-100453489D01*
X132901686Y-100281565D01*
X133273600Y-100281565D01*
X133276956Y-100349582D01*
X133281521Y-100373148D01*
X133315331Y-100405808D01*
X133362154Y-100400365D01*
X133398226Y-100363073D01*
X133409012Y-100310554D01*
X133409685Y-100229517D01*
X133405772Y-100184479D01*
X133392346Y-100104052D01*
X133373240Y-100064131D01*
X133341986Y-100052307D01*
X133336771Y-100052187D01*
X133305341Y-100059558D01*
X133287631Y-100089978D01*
X133278296Y-100155913D01*
X133275737Y-100194554D01*
X133273600Y-100281565D01*
X132901686Y-100281565D01*
X132901406Y-100219910D01*
X132901756Y-100034289D01*
X132903692Y-99891683D01*
X132907398Y-99787148D01*
X132913053Y-99715738D01*
X132920840Y-99672511D01*
X132930939Y-99652522D01*
X132931865Y-99651770D01*
X132973365Y-99641977D01*
X133059260Y-99637298D01*
X133181256Y-99637959D01*
G37*
X133181256Y-99637959D02*
X133291208Y-99642080D01*
X133428354Y-99649431D01*
X133523415Y-99657227D01*
X133587187Y-99667858D01*
X133630465Y-99683714D01*
X133664044Y-99707186D01*
X133688083Y-99729948D01*
X133719934Y-99764824D01*
X133741155Y-99801253D01*
X133754369Y-99850961D01*
X133762203Y-99925674D01*
X133767283Y-100037119D01*
X133769035Y-100091488D01*
X133771931Y-100224548D01*
X133769782Y-100318630D01*
X133760869Y-100387569D01*
X133743475Y-100445201D01*
X133718253Y-100500638D01*
X133684057Y-100572511D01*
X133673039Y-100615144D01*
X133684087Y-100646309D01*
X133707395Y-100674187D01*
X133732819Y-100713816D01*
X133748730Y-100772484D01*
X133757416Y-100862438D01*
X133760587Y-100959034D01*
X133761206Y-101078671D01*
X133758989Y-101190744D01*
X133754402Y-101275223D01*
X133752861Y-101290344D01*
X133740798Y-101390793D01*
X133591701Y-101382948D01*
X133442604Y-101375104D01*
X133429375Y-101105106D01*
X133418855Y-100958816D01*
X133402802Y-100859908D01*
X133379227Y-100802963D01*
X133346139Y-100782566D01*
X133312998Y-100788329D01*
X133294026Y-100806142D01*
X133280849Y-100848172D01*
X133272097Y-100923013D01*
X133266397Y-101039256D01*
X133264917Y-101089498D01*
X133257396Y-101375104D01*
X133151562Y-101378715D01*
X133067646Y-101378175D01*
X132997718Y-101372188D01*
X132989001Y-101370627D01*
X132937277Y-101335596D01*
X132919911Y-101294267D01*
X132916584Y-101251910D01*
X132913245Y-101163923D01*
X132910046Y-101037593D01*
X132907138Y-100880206D01*
X132904672Y-100699048D01*
X132902800Y-100501408D01*
X132902463Y-100453489D01*
X132901686Y-100281565D01*
X133273600Y-100281565D01*
X133276956Y-100349582D01*
X133281521Y-100373148D01*
X133315331Y-100405808D01*
X133362154Y-100400365D01*
X133398226Y-100363073D01*
X133409012Y-100310554D01*
X133409685Y-100229517D01*
X133405772Y-100184479D01*
X133392346Y-100104052D01*
X133373240Y-100064131D01*
X133341986Y-100052307D01*
X133336771Y-100052187D01*
X133305341Y-100059558D01*
X133287631Y-100089978D01*
X133278296Y-100155913D01*
X133275737Y-100194554D01*
X133273600Y-100281565D01*
X132901686Y-100281565D01*
X132901406Y-100219910D01*
X132901756Y-100034289D01*
X132903692Y-99891683D01*
X132907398Y-99787148D01*
X132913053Y-99715738D01*
X132920840Y-99672511D01*
X132930939Y-99652522D01*
X132931865Y-99651770D01*
X132973365Y-99641977D01*
X133059260Y-99637298D01*
X133181256Y-99637959D01*
G36*
X132350833Y-99597166D02*
G01*
X132517111Y-99617276D01*
X132637399Y-99656653D01*
X132716853Y-99720993D01*
X132760629Y-99815989D01*
X132773882Y-99947336D01*
X132768280Y-100058203D01*
X132754687Y-100210937D01*
X132437187Y-100210937D01*
X132400851Y-100096084D01*
X132377038Y-100027698D01*
X132358140Y-100002187D01*
X132335132Y-100011378D01*
X132321476Y-100024215D01*
X132305447Y-100047420D01*
X132293856Y-100085322D01*
X132286032Y-100145696D01*
X132281303Y-100236318D01*
X132278997Y-100364966D01*
X132278437Y-100522297D01*
X132278797Y-100687801D01*
X132280409Y-100807866D01*
X132284073Y-100889966D01*
X132290590Y-100941576D01*
X132300760Y-100970173D01*
X132315382Y-100983230D01*
X132328184Y-100987029D01*
X132381826Y-100978019D01*
X132413188Y-100924263D01*
X132423553Y-100824831D01*
X132423958Y-100724350D01*
X132589323Y-100732227D01*
X132754687Y-100740104D01*
X132754687Y-100954509D01*
X132746588Y-101112191D01*
X132720848Y-101225191D01*
X132675309Y-101299429D01*
X132614620Y-101338373D01*
X132556294Y-101349472D01*
X132463397Y-101356029D01*
X132354096Y-101357841D01*
X132246561Y-101354702D01*
X132158957Y-101346409D01*
X132143176Y-101343680D01*
X132089540Y-101318029D01*
X132026141Y-101268070D01*
X132010884Y-101252988D01*
X131934479Y-101173284D01*
X131918767Y-99771566D01*
X132108845Y-99581488D01*
X132350833Y-99597166D01*
G37*
X132350833Y-99597166D02*
X132517111Y-99617276D01*
X132637399Y-99656653D01*
X132716853Y-99720993D01*
X132760629Y-99815989D01*
X132773882Y-99947336D01*
X132768280Y-100058203D01*
X132754687Y-100210937D01*
X132437187Y-100210937D01*
X132400851Y-100096084D01*
X132377038Y-100027698D01*
X132358140Y-100002187D01*
X132335132Y-100011378D01*
X132321476Y-100024215D01*
X132305447Y-100047420D01*
X132293856Y-100085322D01*
X132286032Y-100145696D01*
X132281303Y-100236318D01*
X132278997Y-100364966D01*
X132278437Y-100522297D01*
X132278797Y-100687801D01*
X132280409Y-100807866D01*
X132284073Y-100889966D01*
X132290590Y-100941576D01*
X132300760Y-100970173D01*
X132315382Y-100983230D01*
X132328184Y-100987029D01*
X132381826Y-100978019D01*
X132413188Y-100924263D01*
X132423553Y-100824831D01*
X132423958Y-100724350D01*
X132589323Y-100732227D01*
X132754687Y-100740104D01*
X132754687Y-100954509D01*
X132746588Y-101112191D01*
X132720848Y-101225191D01*
X132675309Y-101299429D01*
X132614620Y-101338373D01*
X132556294Y-101349472D01*
X132463397Y-101356029D01*
X132354096Y-101357841D01*
X132246561Y-101354702D01*
X132158957Y-101346409D01*
X132143176Y-101343680D01*
X132089540Y-101318029D01*
X132026141Y-101268070D01*
X132010884Y-101252988D01*
X131934479Y-101173284D01*
X131918767Y-99771566D01*
X132108845Y-99581488D01*
X132350833Y-99597166D01*
G36*
X130280833Y-99529703D02*
G01*
X130449462Y-99534985D01*
X130573714Y-99545824D01*
X130662082Y-99565576D01*
X130723059Y-99597597D01*
X130765139Y-99645244D01*
X130796815Y-99711873D01*
X130805956Y-99737214D01*
X130825304Y-99833368D01*
X130832063Y-99959736D01*
X130827373Y-100099454D01*
X130812373Y-100235658D01*
X130788204Y-100351480D01*
X130759497Y-100424454D01*
X130728439Y-100481773D01*
X130722012Y-100523268D01*
X130740154Y-100573894D01*
X130759027Y-100611625D01*
X130784250Y-100673388D01*
X130799902Y-100747583D01*
X130807860Y-100847823D01*
X130810000Y-100981659D01*
X130808486Y-101099723D01*
X130804409Y-101200607D01*
X130798462Y-101270815D01*
X130793940Y-101293565D01*
X130764414Y-101321615D01*
X130697850Y-101332912D01*
X130655034Y-101333328D01*
X130574029Y-101329335D01*
X130513266Y-101321706D01*
X130499114Y-101317894D01*
X130482494Y-101291495D01*
X130471897Y-101224999D01*
X130466753Y-101113459D01*
X130466042Y-101030831D01*
X130461827Y-100878094D01*
X130447852Y-100772257D01*
X130422118Y-100707872D01*
X130382628Y-100679495D01*
X130337153Y-100679542D01*
X130317828Y-100691242D01*
X130303924Y-100723455D01*
X130293893Y-100784766D01*
X130286187Y-100883760D01*
X130280833Y-100991749D01*
X130267604Y-101295729D01*
X129923646Y-101295729D01*
X129923646Y-100100694D01*
X130280833Y-100100694D01*
X130283121Y-100197531D01*
X130289154Y-100272620D01*
X130297685Y-100311224D01*
X130298763Y-100312652D01*
X130333535Y-100318643D01*
X130387941Y-100309710D01*
X130432675Y-100291042D01*
X130436071Y-100288332D01*
X130449816Y-100250493D01*
X130457344Y-100179939D01*
X130458237Y-100096550D01*
X130452080Y-100020210D01*
X130442541Y-99979427D01*
X130404212Y-99922226D01*
X130347634Y-99906667D01*
X130313360Y-99909143D01*
X130293423Y-99924089D01*
X130283942Y-99962777D01*
X130281036Y-100036480D01*
X130280833Y-100100694D01*
X129923646Y-100100694D01*
X129923646Y-99523021D01*
X130280833Y-99529703D01*
G37*
X130280833Y-99529703D02*
X130449462Y-99534985D01*
X130573714Y-99545824D01*
X130662082Y-99565576D01*
X130723059Y-99597597D01*
X130765139Y-99645244D01*
X130796815Y-99711873D01*
X130805956Y-99737214D01*
X130825304Y-99833368D01*
X130832063Y-99959736D01*
X130827373Y-100099454D01*
X130812373Y-100235658D01*
X130788204Y-100351480D01*
X130759497Y-100424454D01*
X130728439Y-100481773D01*
X130722012Y-100523268D01*
X130740154Y-100573894D01*
X130759027Y-100611625D01*
X130784250Y-100673388D01*
X130799902Y-100747583D01*
X130807860Y-100847823D01*
X130810000Y-100981659D01*
X130808486Y-101099723D01*
X130804409Y-101200607D01*
X130798462Y-101270815D01*
X130793940Y-101293565D01*
X130764414Y-101321615D01*
X130697850Y-101332912D01*
X130655034Y-101333328D01*
X130574029Y-101329335D01*
X130513266Y-101321706D01*
X130499114Y-101317894D01*
X130482494Y-101291495D01*
X130471897Y-101224999D01*
X130466753Y-101113459D01*
X130466042Y-101030831D01*
X130461827Y-100878094D01*
X130447852Y-100772257D01*
X130422118Y-100707872D01*
X130382628Y-100679495D01*
X130337153Y-100679542D01*
X130317828Y-100691242D01*
X130303924Y-100723455D01*
X130293893Y-100784766D01*
X130286187Y-100883760D01*
X130280833Y-100991749D01*
X130267604Y-101295729D01*
X129923646Y-101295729D01*
X129923646Y-100100694D01*
X130280833Y-100100694D01*
X130283121Y-100197531D01*
X130289154Y-100272620D01*
X130297685Y-100311224D01*
X130298763Y-100312652D01*
X130333535Y-100318643D01*
X130387941Y-100309710D01*
X130432675Y-100291042D01*
X130436071Y-100288332D01*
X130449816Y-100250493D01*
X130457344Y-100179939D01*
X130458237Y-100096550D01*
X130452080Y-100020210D01*
X130442541Y-99979427D01*
X130404212Y-99922226D01*
X130347634Y-99906667D01*
X130313360Y-99909143D01*
X130293423Y-99924089D01*
X130283942Y-99962777D01*
X130281036Y-100036480D01*
X130280833Y-100100694D01*
X129923646Y-100100694D01*
X129923646Y-99523021D01*
X130280833Y-99529703D01*
G36*
X131601364Y-99569242D02*
G01*
X131688188Y-99573784D01*
X131735533Y-99580612D01*
X131740570Y-99583112D01*
X131759615Y-99628013D01*
X131771614Y-99704506D01*
X131775157Y-99791567D01*
X131768834Y-99868174D01*
X131761564Y-99895900D01*
X131746214Y-99927197D01*
X131721660Y-99943912D01*
X131675097Y-99948762D01*
X131593719Y-99944461D01*
X131549486Y-99940864D01*
X131437641Y-99934568D01*
X131368130Y-99944123D01*
X131330902Y-99977898D01*
X131315906Y-100044262D01*
X131313113Y-100137673D01*
X131315317Y-100219627D01*
X131326887Y-100263768D01*
X131354332Y-100285121D01*
X131380429Y-100293072D01*
X131449855Y-100300833D01*
X131539436Y-100299245D01*
X131565106Y-100296886D01*
X131662819Y-100293390D01*
X131722748Y-100315012D01*
X131752278Y-100369657D01*
X131758793Y-100465230D01*
X131757381Y-100502718D01*
X131749271Y-100660729D01*
X131325937Y-100660729D01*
X131318027Y-100812035D01*
X131315590Y-100888967D01*
X131323953Y-100939447D01*
X131352166Y-100969650D01*
X131409282Y-100985748D01*
X131504349Y-100993912D01*
X131590521Y-100997877D01*
X131749271Y-101004687D01*
X131749271Y-101322187D01*
X131387483Y-101329535D01*
X131254787Y-101330791D01*
X131142179Y-101329129D01*
X131059652Y-101324905D01*
X131017201Y-101318471D01*
X131013848Y-101316306D01*
X131010687Y-101285778D01*
X131007229Y-101208749D01*
X131003633Y-101091630D01*
X131000058Y-100940836D01*
X130996664Y-100762779D01*
X130993609Y-100563872D01*
X130991989Y-100435833D01*
X130981979Y-99575937D01*
X131350297Y-99568547D01*
X131485315Y-99567369D01*
X131601364Y-99569242D01*
G37*
X131601364Y-99569242D02*
X131688188Y-99573784D01*
X131735533Y-99580612D01*
X131740570Y-99583112D01*
X131759615Y-99628013D01*
X131771614Y-99704506D01*
X131775157Y-99791567D01*
X131768834Y-99868174D01*
X131761564Y-99895900D01*
X131746214Y-99927197D01*
X131721660Y-99943912D01*
X131675097Y-99948762D01*
X131593719Y-99944461D01*
X131549486Y-99940864D01*
X131437641Y-99934568D01*
X131368130Y-99944123D01*
X131330902Y-99977898D01*
X131315906Y-100044262D01*
X131313113Y-100137673D01*
X131315317Y-100219627D01*
X131326887Y-100263768D01*
X131354332Y-100285121D01*
X131380429Y-100293072D01*
X131449855Y-100300833D01*
X131539436Y-100299245D01*
X131565106Y-100296886D01*
X131662819Y-100293390D01*
X131722748Y-100315012D01*
X131752278Y-100369657D01*
X131758793Y-100465230D01*
X131757381Y-100502718D01*
X131749271Y-100660729D01*
X131325937Y-100660729D01*
X131318027Y-100812035D01*
X131315590Y-100888967D01*
X131323953Y-100939447D01*
X131352166Y-100969650D01*
X131409282Y-100985748D01*
X131504349Y-100993912D01*
X131590521Y-100997877D01*
X131749271Y-101004687D01*
X131749271Y-101322187D01*
X131387483Y-101329535D01*
X131254787Y-101330791D01*
X131142179Y-101329129D01*
X131059652Y-101324905D01*
X131017201Y-101318471D01*
X131013848Y-101316306D01*
X131010687Y-101285778D01*
X131007229Y-101208749D01*
X131003633Y-101091630D01*
X131000058Y-100940836D01*
X130996664Y-100762779D01*
X130993609Y-100563872D01*
X130991989Y-100435833D01*
X130981979Y-99575937D01*
X131350297Y-99568547D01*
X131485315Y-99567369D01*
X131601364Y-99569242D01*
%TD*%
M02*
