M48
; DRILL file {KiCad (5.1.10)-1} date 11/11/23 20:16:57
; FORMAT={-:-/ absolute / inch / decimal}
; #@! TF.CreationDate,2023-11-11T20:16:57+01:00
; #@! TF.GenerationSoftware,Kicad,Pcbnew,(5.1.10)-1
; #@! TF.FileFunction,Plated,1,2,PTH
FMAT,2
INCH
T1C0.0157
T2C0.0236
T3C0.0276
%
G90
G05
T1
X3.9457Y-3.56
X3.9457Y-4.43
X3.985Y-3.5571
X3.985Y-4.4585
X3.9854Y-3.9606
X4.014Y-3.9213
X4.0244Y-4.4763
X4.0245Y-3.5394
X4.0287Y-4.1181
X4.0425Y-3.8819
X4.0573Y-4.1575
X4.0636Y-4.494
X4.0639Y-3.5216
X4.0711Y-3.8425
X4.0858Y-4.1968
X4.0996Y-3.8031
X4.1032Y-3.5039
X4.1144Y-4.2362
X4.1281Y-3.7638
X4.1927Y-3.7801
X4.1927Y-4.2264
X4.2321Y-3.8002
X4.2321Y-4.2
X4.2715Y-4.1714
X4.2784Y-3.8287
X4.3115Y-4.1428
X4.3472Y-3.8573
X4.3743Y-4.1143
X4.4162Y-3.8858
X4.4432Y-4.0857
X4.485Y-3.9144
X4.5121Y-4.0571
X4.554Y-3.9429
X4.5811Y-4.0286
X4.6229Y-3.9715
X4.65Y-4.0
T2
X3.95Y-4.0197
X3.9933Y-4.0788
T3
X4.9138Y-3.624
X4.9138Y-4.376
X4.9839Y-3.624
X4.9839Y-4.376
X5.0539Y-3.624
X5.0539Y-4.376
X5.124Y-3.624
X5.124Y-4.376
X5.1941Y-3.624
X5.1941Y-4.376
X5.2642Y-3.624
X5.2642Y-4.376
X5.3343Y-3.624
X5.3343Y-4.376
X5.4043Y-3.624
X5.4043Y-4.376
X5.4744Y-3.624
X5.4744Y-4.376
X5.5445Y-3.624
X5.5445Y-4.376
X5.6146Y-3.624
X5.6146Y-4.376
X5.6846Y-3.624
X5.6846Y-4.376
X5.7547Y-3.624
X5.7547Y-4.376
X5.8248Y-3.624
X5.8248Y-4.376
X5.8949Y-3.624
X5.8949Y-4.376
X5.965Y-3.624
X5.965Y-4.376
X6.035Y-3.624
X6.035Y-4.376
X6.1051Y-3.624
X6.1051Y-4.376
X6.1752Y-3.624
X6.1752Y-4.376
X6.2453Y-3.624
X6.2453Y-4.376
X6.3154Y-3.624
X6.3154Y-4.376
X6.3854Y-3.624
X6.3854Y-4.376
X6.4555Y-3.624
X6.4555Y-4.376
X6.5256Y-3.624
X6.5256Y-4.376
X6.5957Y-3.624
X6.5957Y-4.376
X6.6657Y-3.624
X6.6657Y-4.376
X6.7358Y-3.624
X6.7358Y-4.376
X6.8059Y-3.624
X6.8059Y-4.376
X6.876Y-3.624
X6.876Y-4.376
X6.9461Y-3.624
X6.9461Y-4.376
X7.0161Y-3.624
X7.0161Y-4.376
X7.0862Y-3.624
X7.0862Y-4.376
T0
M30
