%TF.GenerationSoftware,KiCad,Pcbnew,(5.1.10)-1*%
%TF.CreationDate,2023-11-11T20:16:55+01:00*%
%TF.ProjectId,tmp90x40-qfc2sdip,746d7039-3078-4343-902d-716663327364,rev?*%
%TF.SameCoordinates,Original*%
%TF.FileFunction,Soldermask,Bot*%
%TF.FilePolarity,Negative*%
%FSLAX46Y46*%
G04 Gerber Fmt 4.6, Leading zero omitted, Abs format (unit mm)*
G04 Created by KiCad (PCBNEW (5.1.10)-1) date 2023-11-11 20:16:55*
%MOMM*%
%LPD*%
G01*
G04 APERTURE LIST*
%ADD10C,1.200000*%
G04 APERTURE END LIST*
D10*
%TO.C,U2*%
X124810000Y-111150400D03*
X126590000Y-111150400D03*
X128370000Y-111150400D03*
X130150000Y-111150400D03*
X131930000Y-111150400D03*
X133710000Y-111150400D03*
X135490000Y-111150400D03*
X137270000Y-111150400D03*
X139050000Y-111150400D03*
X140830000Y-111150400D03*
X142610000Y-111150400D03*
X144390000Y-111150400D03*
X146170000Y-111150400D03*
X147950000Y-111150400D03*
X149730000Y-111150400D03*
X151510000Y-111150400D03*
X153290000Y-111150400D03*
X155070000Y-111150400D03*
X156850000Y-111150400D03*
X158630000Y-111150400D03*
X160410000Y-111150400D03*
X162190000Y-111150400D03*
X163970000Y-111150400D03*
X165750000Y-111150400D03*
X167530000Y-111150400D03*
X169310000Y-111150400D03*
X171090000Y-111150400D03*
X172870000Y-111150400D03*
X174650000Y-111150400D03*
X176430000Y-111150400D03*
X178210000Y-111150400D03*
X179990000Y-111150400D03*
X179990000Y-92049600D03*
X178210000Y-92049600D03*
X176430000Y-92049600D03*
X174650000Y-92049600D03*
X172870000Y-92049600D03*
X171090000Y-92049600D03*
X169310000Y-92049600D03*
X167530000Y-92049600D03*
X165750000Y-92049600D03*
X163970000Y-92049600D03*
X162190000Y-92049600D03*
X160410000Y-92049600D03*
X158630000Y-92049600D03*
X156850000Y-92049600D03*
X155070000Y-92049600D03*
X153290000Y-92049600D03*
X151510000Y-92049600D03*
X149730000Y-92049600D03*
X147950000Y-92049600D03*
X146170000Y-92049600D03*
X144390000Y-92049600D03*
X142610000Y-92049600D03*
X140830000Y-92049600D03*
X139050000Y-92049600D03*
X137270000Y-92049600D03*
X135490000Y-92049600D03*
X133710000Y-92049600D03*
X131930000Y-92049600D03*
X130150000Y-92049600D03*
X128370000Y-92049600D03*
X126590000Y-92049600D03*
X124810000Y-92049600D03*
%TD*%
M02*
