%TF.GenerationSoftware,KiCad,Pcbnew,(5.1.10)-1*%
%TF.CreationDate,2025-11-04T10:25:31+01:00*%
%TF.ProjectId,tlcs90-rom-reader-pcb,746c6373-3930-42d7-926f-6d2d72656164,rev?*%
%TF.SameCoordinates,Original*%
%TF.FileFunction,Soldermask,Top*%
%TF.FilePolarity,Negative*%
%FSLAX46Y46*%
G04 Gerber Fmt 4.6, Leading zero omitted, Abs format (unit mm)*
G04 Created by KiCad (PCBNEW (5.1.10)-1) date 2025-11-04 10:25:31*
%MOMM*%
%LPD*%
G01*
G04 APERTURE LIST*
%ADD10C,1.600000*%
%ADD11R,1.600000X1.600000*%
%ADD12O,1.600000X1.600000*%
%ADD13O,3.500000X3.500000*%
%ADD14R,2.000000X1.905000*%
%ADD15O,2.000000X1.905000*%
%ADD16R,1.500000X2.500000*%
%ADD17O,1.500000X2.500000*%
%ADD18O,2.200000X3.500000*%
%ADD19R,3.500000X3.500000*%
%ADD20O,2.200000X2.200000*%
%ADD21R,2.200000X2.200000*%
%ADD22R,1.500000X1.050000*%
%ADD23O,1.500000X1.050000*%
%ADD24C,1.200000*%
%ADD25O,1.400000X1.400000*%
%ADD26C,1.400000*%
%ADD27C,3.200000*%
%ADD28C,1.800000*%
%ADD29R,1.800000X1.800000*%
%ADD30C,2.000000*%
%ADD31R,1.408000X1.408000*%
%ADD32C,1.408000*%
%ADD33C,0.254000*%
%ADD34C,0.100000*%
G04 APERTURE END LIST*
D10*
%TO.C,C30*%
X181762400Y-51163220D03*
D11*
X181762400Y-53663220D03*
%TD*%
D12*
%TO.C,RA5*%
X180340000Y-104495600D03*
X180340000Y-101955600D03*
X180340000Y-99415600D03*
X180340000Y-96875600D03*
D11*
X180340000Y-94335600D03*
%TD*%
D12*
%TO.C,DSW2*%
X187960000Y-81635600D03*
X180340000Y-89255600D03*
X187960000Y-84175600D03*
X180340000Y-86715600D03*
X187960000Y-86715600D03*
X180340000Y-84175600D03*
X187960000Y-89255600D03*
D11*
X180340000Y-81635600D03*
%TD*%
D13*
%TO.C,U15*%
X186834920Y-64770000D03*
D14*
X170174920Y-62230000D03*
D15*
X170174920Y-64770000D03*
X170174920Y-67310000D03*
%TD*%
D16*
%TO.C,SW2*%
X170720000Y-54610000D03*
D17*
X172720000Y-54610000D03*
X174720000Y-54610000D03*
D18*
X168620000Y-54610000D03*
X176820000Y-54610000D03*
%TD*%
D19*
%TO.C,J2*%
X172271420Y-47673520D03*
G36*
G01*
X171271420Y-40173520D02*
X173271420Y-40173520D01*
G75*
G02*
X174021420Y-40923520I0J-750000D01*
G01*
X174021420Y-42423520D01*
G75*
G02*
X173271420Y-43173520I-750000J0D01*
G01*
X171271420Y-43173520D01*
G75*
G02*
X170521420Y-42423520I0J750000D01*
G01*
X170521420Y-40923520D01*
G75*
G02*
X171271420Y-40173520I750000J0D01*
G01*
G37*
G36*
G01*
X166696420Y-42923520D02*
X168446420Y-42923520D01*
G75*
G02*
X169321420Y-43798520I0J-875000D01*
G01*
X169321420Y-45548520D01*
G75*
G02*
X168446420Y-46423520I-875000J0D01*
G01*
X166696420Y-46423520D01*
G75*
G02*
X165821420Y-45548520I0J875000D01*
G01*
X165821420Y-43798520D01*
G75*
G02*
X166696420Y-42923520I875000J0D01*
G01*
G37*
%TD*%
D20*
%TO.C,D3*%
X187960000Y-46949360D03*
D21*
X187960000Y-57109360D03*
%TD*%
D10*
%TO.C,C14*%
X165100000Y-72136000D03*
X170100000Y-72136000D03*
%TD*%
D12*
%TO.C,U8*%
X149860000Y-113919000D03*
X142240000Y-129159000D03*
X149860000Y-116459000D03*
X142240000Y-126619000D03*
X149860000Y-118999000D03*
X142240000Y-124079000D03*
X149860000Y-121539000D03*
X142240000Y-121539000D03*
X149860000Y-124079000D03*
X142240000Y-118999000D03*
X149860000Y-126619000D03*
X142240000Y-116459000D03*
X149860000Y-129159000D03*
D11*
X142240000Y-113919000D03*
%TD*%
D22*
%TO.C,Q1*%
X135636000Y-148590000D03*
D23*
X135636000Y-146050000D03*
X135636000Y-147320000D03*
%TD*%
D24*
%TO.C,U1*%
X113690400Y-81630000D03*
X113690400Y-83410000D03*
X113690400Y-85190000D03*
X113690400Y-86970000D03*
X113690400Y-88750000D03*
X113690400Y-90530000D03*
X113690400Y-92310000D03*
X113690400Y-94090000D03*
X113690400Y-95870000D03*
X113690400Y-97650000D03*
X113690400Y-99430000D03*
X113690400Y-101210000D03*
X113690400Y-102990000D03*
X113690400Y-104770000D03*
X113690400Y-106550000D03*
X113690400Y-108330000D03*
X113690400Y-110110000D03*
X113690400Y-111890000D03*
X113690400Y-113670000D03*
X113690400Y-115450000D03*
X113690400Y-117230000D03*
X113690400Y-119010000D03*
X113690400Y-120790000D03*
X113690400Y-122570000D03*
X113690400Y-124350000D03*
X113690400Y-126130000D03*
X113690400Y-127910000D03*
X113690400Y-129690000D03*
X113690400Y-131470000D03*
X113690400Y-133250000D03*
X113690400Y-135030000D03*
X113690400Y-136810000D03*
X94589600Y-136810000D03*
X94589600Y-135030000D03*
X94589600Y-133250000D03*
X94589600Y-131470000D03*
X94589600Y-129690000D03*
X94589600Y-127910000D03*
X94589600Y-126130000D03*
X94589600Y-124350000D03*
X94589600Y-122570000D03*
X94589600Y-120790000D03*
X94589600Y-119010000D03*
X94589600Y-117230000D03*
X94589600Y-115450000D03*
X94589600Y-113670000D03*
X94589600Y-111890000D03*
X94589600Y-110110000D03*
X94589600Y-108330000D03*
X94589600Y-106550000D03*
X94589600Y-104770000D03*
X94589600Y-102990000D03*
X94589600Y-101210000D03*
X94589600Y-99430000D03*
X94589600Y-97650000D03*
X94589600Y-95870000D03*
X94589600Y-94090000D03*
X94589600Y-92310000D03*
X94589600Y-90530000D03*
X94589600Y-88750000D03*
X94589600Y-86970000D03*
X94589600Y-85190000D03*
X94589600Y-83410000D03*
X94589600Y-81630000D03*
%TD*%
D10*
%TO.C,C7*%
X119300000Y-35814000D03*
X114300000Y-35814000D03*
%TD*%
%TO.C,C4*%
X168910000Y-109220000D03*
X173910000Y-109220000D03*
%TD*%
D25*
%TO.C,R1*%
X158750000Y-66040000D03*
D26*
X153670000Y-66040000D03*
%TD*%
D18*
%TO.C,SW4*%
X112340000Y-147320000D03*
X104140000Y-147320000D03*
D17*
X110240000Y-147320000D03*
X108240000Y-147320000D03*
D16*
X106240000Y-147320000D03*
%TD*%
D10*
%TO.C,C5*%
X101639360Y-77724000D03*
X106639360Y-77724000D03*
%TD*%
D25*
%TO.C,R5*%
X143510000Y-139446000D03*
D26*
X148590000Y-139446000D03*
%TD*%
D10*
%TO.C,C1*%
X130810000Y-109220000D03*
X135810000Y-109220000D03*
%TD*%
D18*
%TO.C,SW1*%
X162560000Y-54610000D03*
X154360000Y-54610000D03*
D17*
X160460000Y-54610000D03*
X158460000Y-54610000D03*
D16*
X156460000Y-54610000D03*
%TD*%
D27*
%TO.C,H1*%
X82550000Y-36830000D03*
%TD*%
D10*
%TO.C,C20*%
X184324000Y-43180000D03*
D11*
X179324000Y-43180000D03*
%TD*%
D10*
%TO.C,C8*%
X135810000Y-35763200D03*
X130810000Y-35763200D03*
%TD*%
D12*
%TO.C,U14*%
X137160000Y-113944400D03*
X129540000Y-136804400D03*
X137160000Y-116484400D03*
X129540000Y-134264400D03*
X137160000Y-119024400D03*
X129540000Y-131724400D03*
X137160000Y-121564400D03*
X129540000Y-129184400D03*
X137160000Y-124104400D03*
X129540000Y-126644400D03*
X137160000Y-126644400D03*
X129540000Y-124104400D03*
X137160000Y-129184400D03*
X129540000Y-121564400D03*
X137160000Y-131724400D03*
X129540000Y-119024400D03*
X137160000Y-134264400D03*
X129540000Y-116484400D03*
X137160000Y-136804400D03*
D11*
X129540000Y-113944400D03*
%TD*%
D10*
%TO.C,C10*%
X131064000Y-76962000D03*
X136064000Y-76962000D03*
%TD*%
D27*
%TO.C,H3*%
X82550000Y-151130000D03*
%TD*%
D12*
%TO.C,U9*%
X162560000Y-113919000D03*
X154940000Y-129159000D03*
X162560000Y-116459000D03*
X154940000Y-126619000D03*
X162560000Y-118999000D03*
X154940000Y-124079000D03*
X162560000Y-121539000D03*
X154940000Y-121539000D03*
X162560000Y-124079000D03*
X154940000Y-118999000D03*
X162560000Y-126619000D03*
X154940000Y-116459000D03*
X162560000Y-129159000D03*
D11*
X154940000Y-113919000D03*
%TD*%
D10*
%TO.C,C3*%
X156210000Y-109220000D03*
X161210000Y-109220000D03*
%TD*%
%TO.C,C9*%
X148510000Y-35814000D03*
X143510000Y-35814000D03*
%TD*%
D27*
%TO.C,H4*%
X186690000Y-151130000D03*
%TD*%
D10*
%TO.C,C13*%
X168910000Y-76962000D03*
X173910000Y-76962000D03*
%TD*%
%TO.C,C11*%
X143510000Y-76962000D03*
X148510000Y-76962000D03*
%TD*%
D25*
%TO.C,R4*%
X143510000Y-135636000D03*
D26*
X148590000Y-135636000D03*
%TD*%
D27*
%TO.C,H2*%
X186690000Y-36830000D03*
%TD*%
D12*
%TO.C,U5*%
X149860000Y-40640000D03*
X142240000Y-63500000D03*
X149860000Y-43180000D03*
X142240000Y-60960000D03*
X149860000Y-45720000D03*
X142240000Y-58420000D03*
X149860000Y-48260000D03*
X142240000Y-55880000D03*
X149860000Y-50800000D03*
X142240000Y-53340000D03*
X149860000Y-53340000D03*
X142240000Y-50800000D03*
X149860000Y-55880000D03*
X142240000Y-48260000D03*
X149860000Y-58420000D03*
X142240000Y-45720000D03*
X149860000Y-60960000D03*
X142240000Y-43180000D03*
X149860000Y-63500000D03*
D11*
X142240000Y-40640000D03*
%TD*%
D25*
%TO.C,R3*%
X130810000Y-145415000D03*
D26*
X125730000Y-145415000D03*
%TD*%
D11*
%TO.C,U10*%
X142240000Y-81635600D03*
D12*
X149860000Y-96875600D03*
X142240000Y-84175600D03*
X149860000Y-94335600D03*
X142240000Y-86715600D03*
X149860000Y-91795600D03*
X142240000Y-89255600D03*
X149860000Y-89255600D03*
X142240000Y-91795600D03*
X149860000Y-86715600D03*
X142240000Y-94335600D03*
X149860000Y-84175600D03*
X142240000Y-96875600D03*
X149860000Y-81635600D03*
%TD*%
D11*
%TO.C,U12*%
X167640000Y-113919000D03*
D12*
X175260000Y-129159000D03*
X167640000Y-116459000D03*
X175260000Y-126619000D03*
X167640000Y-118999000D03*
X175260000Y-124079000D03*
X167640000Y-121539000D03*
X175260000Y-121539000D03*
X167640000Y-124079000D03*
X175260000Y-118999000D03*
X167640000Y-126619000D03*
X175260000Y-116459000D03*
X167640000Y-129159000D03*
X175260000Y-113919000D03*
%TD*%
%TO.C,DSW1*%
X149860000Y-144780000D03*
X142240000Y-147320000D03*
X149860000Y-147320000D03*
D11*
X142240000Y-144780000D03*
%TD*%
D28*
%TO.C,D1*%
X157480000Y-60960000D03*
D29*
X154940000Y-60960000D03*
%TD*%
D12*
%TO.C,U6*%
X162560000Y-81635600D03*
X154940000Y-99415600D03*
X162560000Y-84175600D03*
X154940000Y-96875600D03*
X162560000Y-86715600D03*
X154940000Y-94335600D03*
X162560000Y-89255600D03*
X154940000Y-91795600D03*
X162560000Y-91795600D03*
X154940000Y-89255600D03*
X162560000Y-94335600D03*
X154940000Y-86715600D03*
X162560000Y-96875600D03*
X154940000Y-84175600D03*
X162560000Y-99415600D03*
D11*
X154940000Y-81635600D03*
%TD*%
D10*
%TO.C,C12*%
X156210000Y-76962000D03*
X161210000Y-76962000D03*
%TD*%
%TO.C,C6*%
X99005400Y-35826700D03*
X94005400Y-35826700D03*
%TD*%
%TO.C,C2*%
X143510000Y-109220000D03*
X148510000Y-109220000D03*
%TD*%
D11*
%TO.C,U3*%
X109220000Y-40640000D03*
D12*
X124460000Y-73660000D03*
X109220000Y-43180000D03*
X124460000Y-71120000D03*
X109220000Y-45720000D03*
X124460000Y-68580000D03*
X109220000Y-48260000D03*
X124460000Y-66040000D03*
X109220000Y-50800000D03*
X124460000Y-63500000D03*
X109220000Y-53340000D03*
X124460000Y-60960000D03*
X109220000Y-55880000D03*
X124460000Y-58420000D03*
X109220000Y-58420000D03*
X124460000Y-55880000D03*
X109220000Y-60960000D03*
X124460000Y-53340000D03*
X109220000Y-63500000D03*
X124460000Y-50800000D03*
X109220000Y-66040000D03*
X124460000Y-48260000D03*
X109220000Y-68580000D03*
X124460000Y-45720000D03*
X109220000Y-71120000D03*
X124460000Y-43180000D03*
X109220000Y-73660000D03*
X124460000Y-40640000D03*
%TD*%
%TO.C,U4*%
X137162540Y-40637460D03*
X129542540Y-68577460D03*
X137162540Y-43177460D03*
X129542540Y-66037460D03*
X137162540Y-45717460D03*
X129542540Y-63497460D03*
X137162540Y-48257460D03*
X129542540Y-60957460D03*
X137162540Y-50797460D03*
X129542540Y-58417460D03*
X137162540Y-53337460D03*
X129542540Y-55877460D03*
X137162540Y-55877460D03*
X129542540Y-53337460D03*
X137162540Y-58417460D03*
X129542540Y-50797460D03*
X137162540Y-60957460D03*
X129542540Y-48257460D03*
X137162540Y-63497460D03*
X129542540Y-45717460D03*
X137162540Y-66037460D03*
X129542540Y-43177460D03*
X137162540Y-68577460D03*
D11*
X129542540Y-40637460D03*
%TD*%
D12*
%TO.C,U2*%
X104140000Y-40640000D03*
X88900000Y-73660000D03*
X104140000Y-43180000D03*
X88900000Y-71120000D03*
X104140000Y-45720000D03*
X88900000Y-68580000D03*
X104140000Y-48260000D03*
X88900000Y-66040000D03*
X104140000Y-50800000D03*
X88900000Y-63500000D03*
X104140000Y-53340000D03*
X88900000Y-60960000D03*
X104140000Y-55880000D03*
X88900000Y-58420000D03*
X104140000Y-58420000D03*
X88900000Y-55880000D03*
X104140000Y-60960000D03*
X88900000Y-53340000D03*
X104140000Y-63500000D03*
X88900000Y-50800000D03*
X104140000Y-66040000D03*
X88900000Y-48260000D03*
X104140000Y-68580000D03*
X88900000Y-45720000D03*
X104140000Y-71120000D03*
X88900000Y-43180000D03*
X104140000Y-73660000D03*
D11*
X88900000Y-40640000D03*
%TD*%
D30*
%TO.C,SW3*%
X97937460Y-144780000D03*
X97937460Y-149280000D03*
X91437460Y-144780000D03*
X91437460Y-149280000D03*
%TD*%
D12*
%TO.C,RA4*%
X88874600Y-136804400D03*
X88874600Y-134264400D03*
X88874600Y-131724400D03*
X88874600Y-129184400D03*
X88874600Y-126644400D03*
X88874600Y-124104400D03*
X88874600Y-121564400D03*
X88874600Y-119024400D03*
D11*
X88874600Y-116484400D03*
%TD*%
D12*
%TO.C,U7*%
X175260000Y-81635600D03*
X167640000Y-99415600D03*
X175260000Y-84175600D03*
X167640000Y-96875600D03*
X175260000Y-86715600D03*
X167640000Y-94335600D03*
X175260000Y-89255600D03*
X167640000Y-91795600D03*
X175260000Y-91795600D03*
X167640000Y-89255600D03*
X175260000Y-94335600D03*
X167640000Y-86715600D03*
X175260000Y-96875600D03*
X167640000Y-84175600D03*
X175260000Y-99415600D03*
D11*
X167640000Y-81635600D03*
%TD*%
D12*
%TO.C,RA3*%
X119380000Y-101955600D03*
X119380000Y-99415600D03*
X119380000Y-96875600D03*
X119380000Y-94335600D03*
X119380000Y-91795600D03*
X119380000Y-89255600D03*
X119380000Y-86715600D03*
X119380000Y-84175600D03*
D11*
X119380000Y-81635600D03*
%TD*%
D12*
%TO.C,RA2*%
X124460000Y-119735600D03*
X124460000Y-117195600D03*
X124460000Y-114655600D03*
X124460000Y-112115600D03*
X124460000Y-109575600D03*
X124460000Y-107035600D03*
X124460000Y-104495600D03*
X124460000Y-101955600D03*
D11*
X124460000Y-99415600D03*
%TD*%
D10*
%TO.C,X1*%
X172720000Y-147320000D03*
X172720000Y-139700000D03*
X157480000Y-139700000D03*
D11*
X157480000Y-147320000D03*
%TD*%
D12*
%TO.C,RA1*%
X119380000Y-136804400D03*
X119380000Y-134264400D03*
X119380000Y-131724400D03*
X119380000Y-129184400D03*
X119380000Y-126644400D03*
X119380000Y-124104400D03*
X119380000Y-121564400D03*
X119380000Y-119024400D03*
D11*
X119380000Y-116484400D03*
%TD*%
D25*
%TO.C,R2*%
X130810000Y-148971000D03*
D26*
X125730000Y-148971000D03*
%TD*%
D12*
%TO.C,U11*%
X137160000Y-81635600D03*
X129540000Y-96875600D03*
X137160000Y-84175600D03*
X129540000Y-94335600D03*
X137160000Y-86715600D03*
X129540000Y-91795600D03*
X137160000Y-89255600D03*
X129540000Y-89255600D03*
X137160000Y-91795600D03*
X129540000Y-86715600D03*
X137160000Y-94335600D03*
X129540000Y-84175600D03*
X137160000Y-96875600D03*
D11*
X129540000Y-81635600D03*
%TD*%
D31*
%TO.C,J1*%
X162495880Y-45720000D03*
D32*
X159995880Y-45720000D03*
X157495880Y-45720000D03*
X154995880Y-45720000D03*
%TD*%
D28*
%TO.C,D2*%
X121920000Y-147320000D03*
D29*
X119380000Y-147320000D03*
%TD*%
D33*
X189557660Y-69692520D02*
X174061120Y-69692520D01*
X174061120Y-59847480D01*
X189557660Y-59847480D01*
X189557660Y-69692520D01*
D34*
G36*
X189557660Y-69692520D02*
G01*
X174061120Y-69692520D01*
X174061120Y-59847480D01*
X189557660Y-59847480D01*
X189557660Y-69692520D01*
G37*
M02*
