%TF.GenerationSoftware,KiCad,Pcbnew,(5.1.10)-1*%
%TF.CreationDate,2025-11-05T14:38:28+01:00*%
%TF.ProjectId,tlcs90-rom-reader-pcb,746c6373-3930-42d7-926f-6d2d72656164,rev?*%
%TF.SameCoordinates,Original*%
%TF.FileFunction,Legend,Bot*%
%TF.FilePolarity,Positive*%
%FSLAX46Y46*%
G04 Gerber Fmt 4.6, Leading zero omitted, Abs format (unit mm)*
G04 Created by KiCad (PCBNEW (5.1.10)-1) date 2025-11-05 14:38:28*
%MOMM*%
%LPD*%
G01*
G04 APERTURE LIST*
%ADD10C,0.150000*%
G04 APERTURE END LIST*
D10*
X138315238Y-152977904D02*
X138315238Y-153549333D01*
X138353333Y-153663619D01*
X138429523Y-153739809D01*
X138543809Y-153777904D01*
X138620000Y-153777904D01*
X137553333Y-153777904D02*
X137934285Y-153777904D01*
X137934285Y-152977904D01*
X136829523Y-153701714D02*
X136867619Y-153739809D01*
X136981904Y-153777904D01*
X137058095Y-153777904D01*
X137172380Y-153739809D01*
X137248571Y-153663619D01*
X137286666Y-153587428D01*
X137324761Y-153435047D01*
X137324761Y-153320761D01*
X137286666Y-153168380D01*
X137248571Y-153092190D01*
X137172380Y-153016000D01*
X137058095Y-152977904D01*
X136981904Y-152977904D01*
X136867619Y-153016000D01*
X136829523Y-153054095D01*
X136258095Y-152977904D02*
X136258095Y-153549333D01*
X136296190Y-153663619D01*
X136372380Y-153739809D01*
X136486666Y-153777904D01*
X136562857Y-153777904D01*
X135496190Y-153777904D02*
X135877142Y-153777904D01*
X135877142Y-152977904D01*
X134772380Y-153701714D02*
X134810476Y-153739809D01*
X134924761Y-153777904D01*
X135000952Y-153777904D01*
X135115238Y-153739809D01*
X135191428Y-153663619D01*
X135229523Y-153587428D01*
X135267619Y-153435047D01*
X135267619Y-153320761D01*
X135229523Y-153168380D01*
X135191428Y-153092190D01*
X135115238Y-153016000D01*
X135000952Y-152977904D01*
X134924761Y-152977904D01*
X134810476Y-153016000D01*
X134772380Y-153054095D01*
X134200952Y-152977904D02*
X134200952Y-153549333D01*
X134239047Y-153663619D01*
X134315238Y-153739809D01*
X134429523Y-153777904D01*
X134505714Y-153777904D01*
X133439047Y-153777904D02*
X133820000Y-153777904D01*
X133820000Y-152977904D01*
X132715238Y-153701714D02*
X132753333Y-153739809D01*
X132867619Y-153777904D01*
X132943809Y-153777904D01*
X133058095Y-153739809D01*
X133134285Y-153663619D01*
X133172380Y-153587428D01*
X133210476Y-153435047D01*
X133210476Y-153320761D01*
X133172380Y-153168380D01*
X133134285Y-153092190D01*
X133058095Y-153016000D01*
X132943809Y-152977904D01*
X132867619Y-152977904D01*
X132753333Y-153016000D01*
X132715238Y-153054095D01*
X132143809Y-152977904D02*
X132143809Y-153549333D01*
X132181904Y-153663619D01*
X132258095Y-153739809D01*
X132372380Y-153777904D01*
X132448571Y-153777904D01*
X131381904Y-153777904D02*
X131762857Y-153777904D01*
X131762857Y-152977904D01*
X130658095Y-153701714D02*
X130696190Y-153739809D01*
X130810476Y-153777904D01*
X130886666Y-153777904D01*
X131000952Y-153739809D01*
X131077142Y-153663619D01*
X131115238Y-153587428D01*
X131153333Y-153435047D01*
X131153333Y-153320761D01*
X131115238Y-153168380D01*
X131077142Y-153092190D01*
X131000952Y-153016000D01*
X130886666Y-152977904D01*
X130810476Y-152977904D01*
X130696190Y-153016000D01*
X130658095Y-153054095D01*
M02*
