M48
; DRILL file {KiCad (5.1.10)-1} date 10/28/23 01:32:58
; FORMAT={-:-/ absolute / inch / decimal}
; #@! TF.CreationDate,2023-10-28T01:32:58+02:00
; #@! TF.GenerationSoftware,Kicad,Pcbnew,(5.1.10)-1
; #@! TF.FileFunction,Plated,1,2,PTH
FMAT,2
INCH
T1C0.0157
T2C0.0276
T3C0.0295
T4C0.0315
T5C0.0354
T6C0.0394
T7C0.0433
T8C0.0472
T9C0.0591
%
G90
G05
T1
X3.3827Y-2.8
X3.4112Y-2.7
X3.5755Y-2.9
X3.6041Y-2.8
X3.6327Y-2.7
X3.6613Y-2.6
X3.6926Y-2.8999
X3.6926Y-3.1601
X3.724Y-3.1297
X3.7754Y-2.5
X3.8039Y-2.5443
X3.8324Y-2.4443
X3.861Y-2.3443
X3.8896Y-2.2443
X3.9182Y-2.1443
X3.9466Y-2.0443
X3.9752Y-1.9443
X4.0Y-3.1301
X4.0Y-4.1949
X4.0038Y-1.8443
X4.1798Y-1.7443
X4.2083Y-1.8
X4.3717Y-1.8272
X4.38Y-2.9
X4.38Y-3.1597
X4.38Y-3.2671
X4.4002Y-1.9272
X4.4288Y-2.0272
X4.5267Y-3.3892
X4.5553Y-2.4272
X4.5838Y-2.5272
X4.6123Y-2.6272
X4.6408Y-2.7272
X4.7448Y-2.3555
X4.7734Y-2.1272
X4.8019Y-2.2272
X4.8304Y-2.3443
X4.86Y-3.514
X4.9157Y-3.4868
X4.9443Y-3.5583
X4.9728Y-3.3583
X4.9749Y-5.6604
X5.0035Y-5.6225
X5.0246Y-4.1216
X5.0247Y-2.4157
X5.1697Y-5.594
X5.18Y-2.5557
X5.18Y-2.8509
X5.2033Y-4.1506
X5.2085Y-2.4554
X5.2086Y-2.8794
X5.23Y-5.6225
X5.2371Y-2.6
X5.2371Y-2.908
X5.2741Y-2.7
X5.3268Y-4.065
X5.3283Y-5.5084
X5.3312Y-2.7938
X5.3557Y-4.0364
X5.4Y-2.8223
X5.4307Y-3.0914
X5.45Y-5.5369
X5.5Y-2.7653
X5.5Y-3.414
X5.5122Y-5.2448
X5.5285Y-2.7367
X5.5407Y-5.2071
X5.5408Y-5.565
X5.5557Y-4.1506
X5.57Y-2.7081
X5.6735Y-4.9407
X5.7306Y-4.9849
X5.7561Y-5.5421
X5.759Y-4.885
X5.7876Y-4.4844
X5.8151Y-3.5697
X5.8437Y-4.1506
X5.8557Y-2.8509
X5.8999Y-2.8794
X5.9446Y-5.2074
X5.9563Y-2.57
X5.96Y-4.0935
X5.9731Y-5.03
X5.9884Y-1.7443
X6.1009Y-3.0916
X6.2116Y-4.1506
X6.2127Y-2.7938
X6.2402Y-3.6787
X6.2402Y-3.9297
X6.2412Y-2.7652
X6.25Y-5.2446
X6.2501Y-4.6409
X6.2687Y-3.6137
X6.2715Y-3.8855
X6.2793Y-2.7364
X6.2972Y-3.5146
X6.3Y-3.8138
X6.3269Y-3.3468
X6.3407Y-4.0364
X6.3999Y-4.0649
X6.4Y-2.7078
X6.4443Y-5.8592
X6.4728Y-5.3101
X6.48Y-4.0364
X6.5014Y-5.2817
X6.5122Y-4.065
X6.5693Y-4.1506
X6.7224Y-3.4583
X6.7348Y-4.5095
X6.7634Y-4.48
X6.7876Y-4.3594
X6.8272Y-4.0935
X6.8557Y-4.1221
T2
X3.724Y-3.2138
X3.724Y-3.2839
X3.724Y-3.3539
X3.724Y-3.424
X3.724Y-3.4941
X3.724Y-3.5642
X3.724Y-3.6343
X3.724Y-3.7043
X3.724Y-3.7744
X3.724Y-3.8445
X3.724Y-3.9146
X3.724Y-3.9846
X3.724Y-4.0547
X3.724Y-4.1248
X3.724Y-4.1949
X3.724Y-4.265
X3.724Y-4.335
X3.724Y-4.4051
X3.724Y-4.4752
X3.724Y-4.5453
X3.724Y-4.6154
X3.724Y-4.6854
X3.724Y-4.7555
X3.724Y-4.8256
X3.724Y-4.8957
X3.724Y-4.9657
X3.724Y-5.0358
X3.724Y-5.1059
X3.724Y-5.176
X3.724Y-5.2461
X3.724Y-5.3161
X3.724Y-5.3862
X4.476Y-3.2138
X4.476Y-3.2839
X4.476Y-3.3539
X4.476Y-3.424
X4.476Y-3.4941
X4.476Y-3.5642
X4.476Y-3.6343
X4.476Y-3.7043
X4.476Y-3.7744
X4.476Y-3.8445
X4.476Y-3.9146
X4.476Y-3.9846
X4.476Y-4.0547
X4.476Y-4.1248
X4.476Y-4.1949
X4.476Y-4.265
X4.476Y-4.335
X4.476Y-4.4051
X4.476Y-4.4752
X4.476Y-4.5453
X4.476Y-4.6154
X4.476Y-4.6854
X4.476Y-4.7555
X4.476Y-4.8256
X4.476Y-4.8957
X4.476Y-4.9657
X4.476Y-5.0358
X4.476Y-5.1059
X4.476Y-5.176
X4.476Y-5.2461
X4.476Y-5.3161
X4.476Y-5.3862
X4.95Y-5.725
X4.95Y-5.865
X5.15Y-5.725
X5.15Y-5.865
X5.65Y-5.34
X5.65Y-5.49
X5.85Y-5.34
X5.85Y-5.49
X6.05Y-2.6
X6.25Y-2.6
T3
X5.34Y-5.75
X5.34Y-5.8
X5.34Y-5.85
T4
X3.499Y-4.586
X3.499Y-4.686
X3.499Y-4.786
X3.499Y-4.886
X3.499Y-4.986
X3.499Y-5.086
X3.499Y-5.186
X3.499Y-5.286
X3.499Y-5.386
X3.5Y-1.6
X3.5Y-1.7
X3.5Y-1.8
X3.5Y-1.9
X3.5Y-2.0
X3.5Y-2.1
X3.5Y-2.2
X3.5Y-2.3
X3.5Y-2.4
X3.5Y-2.5
X3.5Y-2.6
X3.5Y-2.7
X3.5Y-2.8
X3.5Y-2.9
X3.701Y-1.4105
X3.8979Y-1.4105
X4.0015Y-3.06
X4.1Y-1.6
X4.1Y-1.7
X4.1Y-1.8
X4.1Y-1.9
X4.1Y-2.0
X4.1Y-2.1
X4.1Y-2.2
X4.1Y-2.3
X4.1Y-2.4
X4.1Y-2.5
X4.1Y-2.6
X4.1Y-2.7
X4.1Y-2.8
X4.1Y-2.9
X4.1827Y-5.8
X4.1984Y-3.06
X4.2614Y-5.8
X4.3Y-1.6
X4.3Y-1.7
X4.3Y-1.8
X4.3Y-1.9
X4.3Y-2.0
X4.3Y-2.1
X4.3Y-2.2
X4.3Y-2.3
X4.3Y-2.4
X4.3Y-2.5
X4.3Y-2.6
X4.3Y-2.7
X4.3Y-2.8
X4.3Y-2.9
X4.3402Y-5.8
X4.5Y-1.41
X4.6969Y-1.41
X4.7Y-3.214
X4.7Y-3.314
X4.7Y-3.414
X4.7Y-3.514
X4.7Y-3.614
X4.7Y-3.714
X4.7Y-3.814
X4.7Y-3.914
X4.7Y-4.014
X4.7Y-4.586
X4.7Y-4.686
X4.7Y-4.786
X4.7Y-4.886
X4.7Y-4.986
X4.7Y-5.086
X4.7Y-5.186
X4.7Y-5.286
X4.7Y-5.386
X4.9Y-1.6
X4.9Y-1.7
X4.9Y-1.8
X4.9Y-1.9
X4.9Y-2.0
X4.9Y-2.1
X4.9Y-2.2
X4.9Y-2.3
X4.9Y-2.4
X4.9Y-2.5
X4.9Y-2.6
X4.9Y-2.7
X4.9Y-2.8
X4.9Y-2.9
X4.9Y-3.914
X4.9Y-4.014
X4.9Y-4.114
X4.9Y-4.214
X4.9Y-4.314
X4.9Y-4.414
X4.9Y-4.514
X4.9Y-4.614
X4.9Y-4.714
X5.1Y-3.214
X5.1Y-3.314
X5.1Y-3.414
X5.1Y-3.514
X5.1Y-3.614
X5.1Y-3.714
X5.1Y-3.814
X5.1Y-4.486
X5.1Y-4.586
X5.1Y-4.686
X5.1Y-4.786
X5.1Y-4.886
X5.1Y-4.986
X5.1Y-5.086
X5.1Y-5.186
X5.1Y-5.286
X5.1Y-5.386
X5.1001Y-1.5999
X5.1001Y-1.6999
X5.1001Y-1.7999
X5.1001Y-1.8999
X5.1001Y-1.9999
X5.1001Y-2.0999
X5.1001Y-2.1999
X5.1001Y-2.2999
X5.1001Y-2.3999
X5.1001Y-2.4999
X5.1001Y-2.5999
X5.1001Y-2.6999
X5.15Y-1.408
X5.15Y-4.3
X5.16Y-3.03
X5.3469Y-1.408
X5.3469Y-4.3
X5.3569Y-3.03
X5.4Y-3.214
X5.4Y-3.314
X5.4Y-3.414
X5.4Y-3.514
X5.4Y-3.614
X5.4Y-3.714
X5.4Y-3.814
X5.4Y-4.486
X5.4Y-4.586
X5.4Y-4.686
X5.4Y-4.786
X5.4Y-4.886
X5.4Y-4.986
X5.4Y-5.086
X5.4Y-5.186
X5.4Y-5.286
X5.4Y-5.386
X5.4001Y-1.5999
X5.4001Y-1.6999
X5.4001Y-1.7999
X5.4001Y-1.8999
X5.4001Y-1.9999
X5.4001Y-2.0999
X5.4001Y-2.1999
X5.4001Y-2.2999
X5.4001Y-2.3999
X5.4001Y-2.4999
X5.4001Y-2.5999
X5.4001Y-2.6999
X5.6Y-1.6
X5.6Y-1.7
X5.6Y-1.8
X5.6Y-1.9
X5.6Y-2.0
X5.6Y-2.1
X5.6Y-2.2
X5.6Y-2.3
X5.6Y-2.4
X5.6Y-2.5
X5.6Y-3.214
X5.6Y-3.314
X5.6Y-3.414
X5.6Y-3.514
X5.6Y-3.614
X5.6Y-3.714
X5.6Y-3.814
X5.6Y-4.485
X5.6Y-4.585
X5.6Y-4.685
X5.6Y-4.785
X5.6Y-4.885
X5.6Y-4.985
X5.6Y-5.085
X5.6Y-5.7
X5.6Y-5.8
X5.65Y-1.41
X5.65Y-3.03
X5.65Y-4.3
X5.8469Y-1.41
X5.8469Y-3.03
X5.8469Y-4.3
X5.9Y-1.6
X5.9Y-1.7
X5.9Y-1.8
X5.9Y-1.9
X5.9Y-2.0
X5.9Y-2.1
X5.9Y-2.2
X5.9Y-2.3
X5.9Y-2.4
X5.9Y-2.5
X5.9Y-3.214
X5.9Y-3.314
X5.9Y-3.414
X5.9Y-3.514
X5.9Y-3.614
X5.9Y-3.714
X5.9Y-3.814
X5.9Y-4.485
X5.9Y-4.585
X5.9Y-4.685
X5.9Y-4.785
X5.9Y-4.885
X5.9Y-4.985
X5.9Y-5.085
X5.9Y-5.7
X5.9Y-5.8
X6.1Y-3.214
X6.1Y-3.314
X6.1Y-3.414
X6.1Y-3.514
X6.1Y-3.614
X6.1Y-3.714
X6.1Y-3.814
X6.1Y-3.914
X6.1Y-4.485
X6.1Y-4.585
X6.1Y-4.685
X6.1Y-4.785
X6.1Y-4.885
X6.1Y-4.985
X6.1Y-5.085
X6.15Y-3.03
X6.15Y-4.3
X6.1598Y-2.15
X6.2Y-5.5
X6.2Y-5.8
X6.2386Y-2.15
X6.3173Y-2.15
X6.3469Y-3.03
X6.3469Y-4.3
X6.4Y-3.214
X6.4Y-3.314
X6.4Y-3.414
X6.4Y-3.514
X6.4Y-3.614
X6.4Y-3.714
X6.4Y-3.814
X6.4Y-3.914
X6.4Y-4.485
X6.4Y-4.585
X6.4Y-4.685
X6.4Y-4.785
X6.4Y-4.885
X6.4Y-4.985
X6.4Y-5.085
X6.5Y-2.84
X6.6Y-3.214
X6.6Y-3.314
X6.6Y-3.414
X6.6Y-3.514
X6.6Y-3.614
X6.6Y-3.714
X6.6Y-3.814
X6.6Y-3.914
X6.6Y-4.485
X6.6Y-4.585
X6.6Y-4.685
X6.6Y-4.785
X6.6Y-4.885
X6.6Y-4.985
X6.6Y-5.085
X6.65Y-3.03
X6.65Y-4.3
X6.6969Y-2.84
X6.7213Y-2.15
X6.8Y-2.15
X6.8Y-5.5
X6.8Y-5.8
X6.8469Y-3.03
X6.8469Y-4.3
X6.8787Y-2.15
X6.9Y-3.214
X6.9Y-3.314
X6.9Y-3.414
X6.9Y-3.514
X6.9Y-3.614
X6.9Y-3.714
X6.9Y-3.814
X6.9Y-3.914
X6.9Y-4.485
X6.9Y-4.585
X6.9Y-4.685
X6.9Y-4.785
X6.9Y-4.885
X6.9Y-4.985
X6.9Y-5.085
X7.06Y-1.7
X7.1Y-3.214
X7.1Y-3.314
X7.1Y-3.414
X7.1Y-3.514
X7.1Y-3.714
X7.1Y-3.814
X7.1Y-3.914
X7.1Y-4.014
X7.1Y-4.114
X7.156Y-2.0143
X7.156Y-2.1127
X7.2569Y-1.7
X7.4Y-3.214
X7.4Y-3.314
X7.4Y-3.414
X7.4Y-3.514
T5
X4.7Y-5.8
X4.8Y-5.8
X6.1Y-2.4
X6.1022Y-1.8
X6.2Y-2.4
X6.2006Y-1.8
X6.2991Y-1.8
X6.3975Y-1.8
T7
X3.5999Y-5.7
X3.5999Y-5.8772
X3.8558Y-5.7
X3.8558Y-5.8772
X6.6998Y-2.45
X6.6998Y-2.55
X6.6998Y-2.65
X7.4Y-1.8484
X7.4Y-2.2484
T8
X3.3077Y-2.9
X3.3077Y-3.2838
X6.9398Y-2.55
X7.1526Y-2.55
T9
X4.1Y-5.8
X4.4228Y-5.8
X6.0772Y-2.15
X6.4Y-2.15
X6.6386Y-2.15
X6.9614Y-2.15
T6
G00X6.5973Y-1.7194
M15
G01X6.5973Y-1.7982
M16
G05
G00X6.8217Y-1.6407
M15
G01X6.743Y-1.6407
M16
G05
G00X6.8217Y-1.8769
M15
G01X6.743Y-1.8769
M16
G05
T0
M30
